<svg width="24" height="20" viewBox="0 0 24 20" fill="none" xmlns="http://www.w3.org/2000/svg">
<g id="Clip path group">
<mask id="mask0_28_1467" style="mask-type:luminance" maskUnits="userSpaceOnUse" x="0" y="0" width="24" height="20">
<g id="a">
<path id="Vector" d="M23.4238 19.5522H0.0917969V0.886665H23.4238V19.5522Z" fill="white"/>
</g>
</mask>
<g mask="url(#mask0_28_1467)">
<g id="Group">
<path id="Vector_2" d="M6.21585 13.7192H10.5906C10.5906 14.1081 10.6149 14.4969 10.6635 14.8858H10.0073V17.219H11.5385C11.7815 17.6322 12.0732 18.0211 12.4134 18.3856H3.59101C2.9348 18.3613 2.38796 18.1304 1.95048 17.6929C1.51301 17.2555 1.28212 16.7086 1.25781 16.0524V4.38642C1.28212 3.73021 1.51301 3.18337 1.95048 2.74589C2.38796 2.30842 2.9348 2.07753 3.59101 2.05322H15.257C15.9132 2.07753 16.4601 2.30842 16.8975 2.74589C17.335 3.18337 17.5659 3.73021 17.5902 4.38642V6.17276C17.5416 6.09988 17.4687 6.02695 17.3715 5.95402C17.1041 5.73532 16.7882 5.60164 16.4236 5.55302V4.38642C16.4236 4.04616 16.3142 3.76667 16.0955 3.54793C15.8768 3.32919 15.5973 3.21982 15.257 3.21982H13.7987V6.71962H10.0073V9.63612H12.0124C11.9881 9.66043 11.9638 9.69687 11.9395 9.74549C11.745 10.0614 11.5385 10.4138 11.3197 10.8027H6.21585V13.7192ZM6.21585 5.55302H12.6321V3.21982H6.21585V5.55302ZM5.04925 3.21982H3.59101C3.25075 3.21982 2.97126 3.32919 2.75252 3.54793C2.53378 3.76667 2.42441 4.04616 2.42441 4.38642V5.55302H5.04925V3.21982ZM2.42441 6.71962V9.63612H8.84072V6.71962H2.42441ZM5.04925 13.7192V10.8027H2.42441V13.7192H5.04925ZM2.42441 14.8858V16.0524C2.42441 16.3927 2.53378 16.6722 2.75252 16.8909C2.97126 17.1096 3.25075 17.219 3.59101 17.219H8.84072V14.8858H2.42441ZM16.3142 10.2194C16.5087 10.2194 16.6666 10.2923 16.7882 10.4382C16.8611 10.5354 17.0677 10.8027 17.4079 11.2402C17.578 11.4589 17.7603 11.702 17.9548 11.9693L18.611 12.7714L19.4495 11.787C19.571 11.6412 19.729 11.5683 19.9234 11.5683C20.0935 11.5683 20.2393 11.6412 20.3608 11.787C20.4824 11.9814 20.5796 12.1516 20.6525 12.2974C20.6525 12.2974 20.6525 12.3096 20.6525 12.3339C21.0414 13.063 21.1629 13.8286 21.0171 14.6306C20.847 15.4084 20.4216 16.0524 19.7411 16.5628C19.1092 17.0003 18.3923 17.219 17.5902 17.219C16.6424 17.219 15.8281 16.9152 15.1476 16.3076C14.4671 15.7 14.1147 14.8615 14.0904 13.7921C14.0904 13.2332 14.2484 12.6984 14.5643 12.1881C14.8803 11.6777 15.3178 11.0944 15.8768 10.4382C15.974 10.2923 16.1198 10.2073 16.3142 10.183V10.2194ZM19.7775 13.1724L19.012 14.0473C18.8905 14.1931 18.7446 14.2539 18.5745 14.2296C18.3801 14.2539 18.2221 14.1931 18.1006 14.0473L16.3142 11.7506C15.9983 12.1394 15.7552 12.4797 15.5851 12.7714C15.3664 13.1602 15.257 13.5005 15.257 13.7921C15.2813 14.5213 15.5 15.0802 15.9132 15.4691C16.3507 15.858 16.9218 16.0524 17.6267 16.0524C18.1613 16.0524 18.6353 15.9066 19.0484 15.6149C19.4373 15.3476 19.6925 14.983 19.814 14.5213C19.9355 14.0838 19.9234 13.6342 19.7775 13.1724ZM17.8818 8.06852C18.1492 8.36015 18.4044 8.66395 18.6474 8.97989C18.8905 8.66395 19.1457 8.36015 19.413 8.06852C19.4373 8.04421 19.4738 8.00772 19.5224 7.95915C19.5467 7.93484 19.5831 7.89835 19.6317 7.84977C19.8748 7.70392 20.1178 7.71609 20.3608 7.88622C21.2601 8.76119 21.9892 9.74549 22.5482 10.8392C23.1072 11.9329 23.3989 12.8686 23.4232 13.6463C23.3746 15.299 22.8034 16.6843 21.7097 17.8023C20.6161 18.9203 19.2429 19.5036 17.5902 19.5522C15.9132 19.5036 14.5279 18.9203 13.4342 17.8023C12.3405 16.6843 11.7693 15.299 11.7207 13.6463C11.7693 12.6499 12.1704 11.5561 12.9238 10.3652C13.6772 9.15005 14.6737 7.98346 15.9132 6.86543C16.1319 6.671 16.375 6.671 16.6424 6.86543C17.0555 7.2543 17.4687 7.65534 17.8818 8.06852ZM18.6474 10.1465C18.2829 10.1465 17.9791 9.98854 17.736 9.67256C17.2985 9.16219 16.8368 8.67608 16.3507 8.21433C16.3264 8.16571 16.3021 8.12927 16.2778 8.10496C15.3056 9.05282 14.5279 10.0007 13.9446 10.9485C13.2641 12.0908 12.9238 12.9901 12.9238 13.6463C12.9481 14.983 13.3977 16.101 14.2727 17.0003C15.1476 17.8995 16.2535 18.3613 17.5902 18.3856C18.9026 18.3613 19.9963 17.8995 20.8713 17.0003C21.7705 16.101 22.2323 14.983 22.2566 13.6463C22.2566 13.1602 22.0014 12.4068 21.491 11.386C21.1021 10.584 20.6039 9.84268 19.9963 9.16219C19.9477 9.21081 19.9112 9.25938 19.8869 9.308C19.7654 9.42955 19.656 9.55105 19.5589 9.67256C19.3158 9.96423 19.012 10.1222 18.6474 10.1465Z" fill="#FD6B2A"/>
</g>
</g>
</g>
</svg>
