<svg width="24" height="24" viewBox="0 0 24 24" fill="none" xmlns="http://www.w3.org/2000/svg">
<g id="Clip path group">
<mask id="mask0_28_292" style="mask-type:luminance" maskUnits="userSpaceOnUse" x="0" y="0" width="24" height="24">
<g id="a">
<path id="Vector" d="M23.9907 23.9546H0.480469V0.444386H23.9907V23.9546Z" fill="white"/>
</g>
</mask>
<g mask="url(#mask0_28_292)">
<g id="Group">
<path id="Vector_2" d="M12.97 11.4647C12.5108 11.4954 12.2659 11.7403 12.2353 12.1994C12.2659 12.628 12.5108 12.8576 12.97 12.8882C13.4291 12.8576 13.674 12.6127 13.7046 12.1535C13.674 11.7556 13.4291 11.526 12.97 11.4647ZM18.1128 10.6842H17.5618C17.1026 10.6842 16.7505 10.5311 16.5056 10.225C16.2301 9.94946 16.0924 9.61273 16.0924 9.21477C16.0924 8.84742 16.2301 8.49535 16.5056 8.15862L16.9189 7.79127C17.072 7.63821 17.1485 7.46987 17.1485 7.2862C17.0873 6.85762 16.8424 6.61273 16.4138 6.5515C16.1995 6.5515 16.0158 6.62801 15.8628 6.78107L15.4954 7.19436C15.1587 7.46987 14.8067 7.6076 14.4393 7.6076C14.0414 7.6076 13.7046 7.46987 13.4291 7.19436C13.123 6.94946 12.97 6.59739 12.97 6.13821V5.5413C12.9393 5.08209 12.6944 4.83719 12.2353 4.80658C11.7761 4.83719 11.5312 5.08209 11.5006 5.5413V6.09232C11.47 6.5515 11.3169 6.90352 11.0414 7.14842C10.7659 7.42393 10.4291 7.56171 10.0312 7.56171C9.66383 7.56171 9.31177 7.42393 8.97503 7.14842L8.60769 6.78107C8.45462 6.62801 8.28628 6.56678 8.10261 6.59739C7.64342 6.62801 7.39853 6.85762 7.36791 7.2862C7.3373 7.46987 7.39853 7.63821 7.55159 7.79127L7.96483 8.15862C8.24034 8.52597 8.37812 8.89331 8.37812 9.26066C8.37812 9.65862 8.24034 9.99535 7.96483 10.2709C7.71993 10.577 7.36791 10.73 6.90873 10.73H6.35771C5.89853 10.7607 5.65363 11.0056 5.62302 11.4647C5.65363 11.9239 5.89853 12.1688 6.35771 12.1994H6.90873C7.36791 12.23 7.71993 12.3831 7.96483 12.6586C8.24034 12.9341 8.37812 13.2709 8.37812 13.6688C8.37812 14.0362 8.24034 14.3882 7.96483 14.725L7.55159 15.0923C7.42914 15.2454 7.36791 15.4291 7.36791 15.6433C7.39853 16.0413 7.64342 16.2709 8.10261 16.3321C8.28628 16.3321 8.45462 16.2556 8.60769 16.1025L8.97503 15.6892C9.31177 15.4137 9.66383 15.276 10.0312 15.276C10.2149 15.2454 10.4904 15.3372 10.8577 15.5515C11.2557 15.7352 11.47 16.1331 11.5006 16.7454V17.2964C11.5312 17.7556 11.7761 18.0005 12.2353 18.0311C12.6944 18.0005 12.9393 17.7556 12.97 17.2964V16.7454C12.97 16.2862 13.123 15.9341 13.4291 15.6892C13.7046 15.4137 14.0414 15.276 14.4393 15.276C14.8067 15.276 15.1587 15.4137 15.4954 15.6892L15.8628 16.1025C16.0158 16.2556 16.1995 16.3321 16.4138 16.3321C16.8424 16.2709 17.0873 16.0413 17.1485 15.6433C17.1485 15.4291 17.072 15.2454 16.9189 15.0923L16.5056 14.725C16.2301 14.3882 16.0924 14.0362 16.0924 13.6688C16.0924 13.2709 16.2301 12.9341 16.5056 12.6586C16.7505 12.3525 17.1026 12.1994 17.5618 12.1994H18.1128C18.572 12.1688 18.8169 11.9239 18.8475 11.4647C18.8169 11.0056 18.572 10.7454 18.1128 10.6842ZM14.623 13.6688C14.623 13.73 14.623 13.7913 14.623 13.8525C14.5618 13.8525 14.5006 13.8525 14.4393 13.8525C13.5516 13.8831 12.8169 14.2198 12.2353 14.8627C11.6842 14.2198 10.9495 13.8831 10.0312 13.8525C9.96995 13.8525 9.90873 13.8525 9.84751 13.8525C9.84751 13.7913 9.84751 13.73 9.84751 13.6688C9.90873 12.9341 9.572 12.1994 8.8373 11.4647C9.48016 10.8831 9.81689 10.1484 9.84751 9.26066C9.84751 9.19944 9.84751 9.13821 9.84751 9.07699C9.90873 9.07699 9.96995 9.07699 10.0312 9.07699C10.9189 9.04638 11.6536 8.70964 12.2353 8.06678C12.8169 8.70964 13.5516 9.04638 14.4393 9.07699C14.5006 9.07699 14.5618 9.07699 14.623 9.07699C14.623 9.13821 14.623 9.19944 14.623 9.26066C14.623 10.1178 14.9444 10.8525 15.5873 11.4647C14.975 12.0464 14.6536 12.7811 14.623 13.6688ZM11.5006 9.94946C11.0414 9.98007 10.7965 10.225 10.7659 10.6842C10.7965 11.1433 11.0414 11.4035 11.5006 11.4647C11.9598 11.4341 12.2046 11.1892 12.2353 10.73C12.2046 10.2709 11.9598 10.0107 11.5006 9.94946ZM21.924 4.30148L13.1077 0.62801C12.8322 0.505561 12.5414 0.444336 12.2353 0.444336C11.9598 0.444336 11.6842 0.505561 11.4087 0.62801L2.59239 4.30148C1.70464 4.69944 1.24546 5.37291 1.21484 6.32188C1.30668 10.2709 2.08729 13.5464 3.55668 16.1484C5.02605 18.7505 6.61789 20.7096 8.33218 22.026C10.0771 23.3117 11.3781 23.9545 12.2353 23.9545C13.123 23.9545 14.424 23.2964 16.1383 21.9801C17.8832 20.6944 19.475 18.7352 20.9138 16.1025C22.3832 13.5005 23.1638 10.2403 23.2557 6.32188C23.2251 5.37291 22.7812 4.69944 21.924 4.30148ZM12.2353 22.4852C11.47 22.4852 10.3526 21.8576 8.8832 20.6025C7.3832 19.378 5.99036 17.5566 4.70464 15.1382C3.44954 12.7198 2.77607 9.76579 2.68423 6.27599C2.68423 5.96987 2.83729 5.74025 3.14342 5.58719L11.9598 1.91372C12.0516 1.88311 12.1434 1.8678 12.2353 1.8678C12.3271 1.8678 12.4189 1.88311 12.5108 1.91372L21.3271 5.58719C21.6332 5.77086 21.7863 6.00048 21.7863 6.27599C21.7557 9.27599 21.2812 11.8168 20.3628 13.8984C19.475 15.9801 18.4342 17.6484 17.2403 18.9035C16.0158 20.1586 14.9291 21.077 13.9802 21.6586C13.0006 22.2096 12.4189 22.4852 12.2353 22.4852Z" fill="#FD6B2A"/>
</g>
</g>
</g>
</svg>
