<svg width="41" height="49" viewBox="0 0 41 49" fill="none" xmlns="http://www.w3.org/2000/svg">
<g clip-path="url(#clip0_1_1457)">
<path d="M13.5755 48.0338C10.6955 46.7858 8.0075 43.6338 8.0075 40.4018C8.0075 36.8818 10.2315 33.8898 13.0155 31.9218C12.6795 33.1858 12.5035 34.3378 13.3195 35.4738C14.0875 36.5298 15.4315 37.0418 16.7115 36.7538C19.6875 36.0978 19.8155 32.8338 18.0555 30.9298C16.3115 29.0258 14.6315 26.8978 15.3035 24.1618C15.6395 22.7858 16.4715 21.5058 17.5435 20.5938C16.7275 22.7538 19.0475 24.8658 20.5835 25.9378C23.2395 27.7778 26.1675 29.1538 28.6155 31.3138C31.1915 33.5698 33.0955 36.6418 32.7115 40.1778C32.2955 44.0178 29.2395 46.6898 25.8155 48.0498C33.0635 46.4498 40.5355 40.8338 40.6955 32.8018C40.8235 26.1938 36.2955 21.1058 30.6795 18.1938L30.3915 18.0338C30.5515 18.4018 30.5995 18.7218 30.5835 19.0098C30.6315 18.8018 30.6635 18.5778 30.6795 18.3538C30.6795 18.6258 30.6475 18.8978 30.5835 19.1378L30.5995 19.0098C30.5195 19.3618 30.3755 19.6978 30.1835 20.0018L30.2635 19.9058C29.1435 21.7618 26.1035 22.1618 24.6155 20.2418C22.1995 17.1538 24.6635 13.8098 25.0155 10.5298C25.4475 6.4178 22.8715 2.4338 19.6715 0.0498047C21.4315 2.8978 19.1115 6.6578 17.2555 8.7698C15.4635 10.8178 13.2715 12.5138 11.2875 14.3698C9.1595 16.3538 7.1115 18.4498 5.3515 20.7858C1.8475 25.4578 -0.296504 31.3458 1.2715 37.1698C2.8235 43.0098 7.8795 46.7218 13.5755 48.0338Z" fill="#EE4323"/>
</g>
<defs>
<clipPath id="clip0_1_1457">
<rect width="40" height="48" fill="white" transform="translate(0.75 0.0498047)"/>
</clipPath>
</defs>
</svg>
