<svg width="40" height="40" viewBox="0 0 40 40" fill="none" xmlns="http://www.w3.org/2000/svg">
<g id="Clip path group">
<mask id="mask0_28_1317" style="mask-type:luminance" maskUnits="userSpaceOnUse" x="0" y="0" width="40" height="40">
<g id="a">
<path id="Vector" d="M39.2215 39.4778H0.433594V0.689903H39.2215V39.4778Z" fill="white"/>
</g>
</mask>
<g mask="url(#mask0_28_1317)">
<g id="Group">
<path id="Vector_2" d="M27.1003 10.3869H12.5548C11.8477 10.3869 11.2669 10.6142 10.8124 11.0687C10.3578 11.5233 10.1306 12.1041 10.1306 12.8111V27.3566C10.1306 28.0636 10.3578 28.6445 10.8124 29.099C11.2669 29.5536 11.8477 29.7808 12.5548 29.7808H27.1003C27.8073 29.7808 28.3881 29.5536 28.8427 29.099C29.2972 28.6445 29.5245 28.0636 29.5245 27.3566V12.8111C29.5245 12.1041 29.2972 11.5233 28.8427 11.0687C28.3881 10.6142 27.8073 10.3869 27.1003 10.3869ZM27.1003 27.3566H12.5548V12.8111H27.1003V27.3566ZM38.0094 21.296C38.7669 21.2455 39.1709 20.8414 39.2215 20.0839C39.1709 19.3263 38.7669 18.9223 38.0094 18.8718H34.373V14.0233H38.0094C38.7669 13.9727 39.1709 13.5687 39.2215 12.8111C39.1709 12.0536 38.7669 11.6495 38.0094 11.599H34.373V10.3869C34.3224 9.02327 33.8427 7.8869 32.9336 6.97781C32.0245 6.06872 30.8881 5.58893 29.5245 5.53842H28.3124V1.90206C28.2618 1.14449 27.8578 0.740446 27.1003 0.689941C26.3427 0.740446 25.9387 1.14449 25.8881 1.90206V5.53842H21.0397V1.90206C20.9891 1.14449 20.5851 0.740446 19.8275 0.689941C19.07 0.740446 18.666 1.14449 18.6154 1.90206V5.53842H13.7669V1.90206C13.7164 1.14449 13.3124 0.740446 12.5548 0.689941C11.7972 0.740446 11.3932 1.14449 11.3427 1.90206V5.53842H10.1306C8.76693 5.58893 7.63056 6.06872 6.72147 6.97781C5.81238 7.8869 5.33259 9.02327 5.28208 10.3869V11.599H1.64571C0.888139 11.6495 0.484099 12.0536 0.433594 12.8111C0.484099 13.5687 0.888139 13.9727 1.64571 14.0233H5.28208V18.8718H1.64571C0.888139 18.9223 0.484099 19.3263 0.433594 20.0839C0.484099 20.8414 0.888139 21.2455 1.64571 21.296H5.28208V26.1445H1.64571C0.888139 26.195 0.484099 26.599 0.433594 27.3566C0.484099 28.1142 0.888139 28.5182 1.64571 28.5687H5.28208V29.7808C5.33259 31.1445 5.81238 32.2808 6.72147 33.1899C7.63056 34.099 8.76693 34.5788 10.1306 34.6293H11.3427V38.2657C11.3932 39.0233 11.7972 39.4273 12.5548 39.4778C13.3124 39.4273 13.7164 39.0233 13.7669 38.2657V34.6293H18.6154V38.2657C18.666 39.0233 19.07 39.4273 19.8275 39.4778C20.5851 39.4273 20.9891 39.0233 21.0397 38.2657V34.6293H25.8881V38.2657C25.9387 39.0233 26.3427 39.4273 27.1003 39.4778C27.8578 39.4273 28.2618 39.0233 28.3124 38.2657V34.6293H29.5245C30.8881 34.5788 32.0245 34.099 32.9336 33.1899C33.8427 32.2808 34.3224 31.1445 34.373 29.7808V28.5687H38.0094C38.7669 28.5182 39.1709 28.1142 39.2215 27.3566C39.1709 26.599 38.7669 26.195 38.0094 26.1445H34.373V21.296H38.0094ZM31.9487 29.7808C31.9487 30.4879 31.7215 31.0687 31.2669 31.5233C30.8124 31.9778 30.2315 32.2051 29.5245 32.2051H10.1306C9.4235 32.2051 8.84268 31.9778 8.38814 31.5233C7.93359 31.0687 7.70632 30.4879 7.70632 29.7808V10.3869C7.70632 9.67984 7.93359 9.09903 8.38814 8.64448C8.84268 8.18994 9.4235 7.96266 10.1306 7.96266H29.5245C30.2315 7.96266 30.8124 8.18994 31.2669 8.64448C31.7215 9.09903 31.9487 9.67984 31.9487 10.3869V29.7808Z" fill="#FD6B2A"/>
</g>
</g>
</g>
</svg>
