<svg width="24" height="33" viewBox="0 0 24 33" fill="none" xmlns="http://www.w3.org/2000/svg">
<g id="Clip path group">
<mask id="mask0_28_1336" style="mask-type:luminance" maskUnits="userSpaceOnUse" x="0" y="0" width="24" height="33">
<g id="a">
<path id="Vector" d="M23.9971 32.3521H0.00195312V0.358582H23.9971V32.3521Z" fill="white"/>
</g>
</mask>
<g mask="url(#mask0_28_1336)">
<g id="Group">
<path id="Vector_2" d="M22.8098 8.16933L16.1861 1.54565C15.3947 0.754151 14.4573 0.358398 13.3742 0.358398H4.00114C2.87637 0.400057 1.93906 0.795809 1.18921 1.54565C0.439364 2.2955 0.0436113 3.23281 0.00195312 4.35758V28.3527C0.0436113 29.4775 0.439364 30.4148 1.18921 31.1646C1.93906 31.9145 2.87637 32.3102 4.00114 32.3519H19.9979C21.1226 32.3102 22.06 31.9145 22.8098 31.1646C23.5597 30.4148 23.9554 29.4775 23.9971 28.3527V11.0437C23.9971 9.91898 23.6013 8.96084 22.8098 8.16933ZM13.9991 2.48296C14.2907 2.56628 14.5407 2.71208 14.7489 2.92037L21.435 9.60651C21.6434 9.8148 21.7892 10.0647 21.8725 10.3564H14.9989C14.374 10.3147 14.0408 9.98143 13.9991 9.35656V2.48296ZM21.9975 28.3527C21.9975 28.9359 21.81 29.415 21.435 29.7899C21.0602 30.1648 20.5811 30.3523 19.9979 30.3523H4.00114C3.41792 30.3523 2.93885 30.1648 2.56393 29.7899C2.18901 29.415 2.00154 28.9359 2.00154 28.3527V4.35758C2.00154 3.77436 2.18901 3.2953 2.56393 2.92037C2.93885 2.54545 3.41792 2.35799 4.00114 2.35799H11.9995V9.35656C12.0412 10.1897 12.3328 10.8979 12.8743 11.4811C13.4575 12.0227 14.1657 12.3143 14.9989 12.3559H21.9975V28.3527ZM7.68785 20.2919C7.22968 19.9169 6.77137 19.9169 6.31316 20.2919C5.89658 20.7918 5.89658 21.2708 6.31316 21.729L9.62499 25.0409C9.83328 25.2492 10.0624 25.3533 10.3124 25.3533C10.6039 25.3533 10.8539 25.2492 11.0622 25.0409L17.6858 18.4172C18.1024 17.9173 18.1024 17.4382 17.6858 16.98C17.2276 16.6051 16.7693 16.6051 16.3112 16.98L10.3124 22.9163L7.68785 20.2919Z" fill="#FD6B2A"/>
</g>
</g>
</g>
</svg>
