<svg width="53" height="49" viewBox="0 0 53 49" fill="none" xmlns="http://www.w3.org/2000/svg">
<g clip-path="url(#clip0_1_1612)">
<path d="M3.256 18.375L26.0882 48.0497L1.06245 29.4753C0.375843 28.9595 0.0825456 28.0616 0.345502 27.2536L3.25263 18.3704L3.256 18.375Z" fill="#FCA326"/>
<path d="M16.5781 18.3706L26.0973 48.0464L26.0883 48.0498L3.2561 18.3751L3.26285 18.3706H16.5781Z" fill="#FC6D26"/>
<path d="M35.6174 18.3706L26.0981 48.0498L26.0971 48.0464L16.5779 18.3706H16.588H35.6074H35.6174Z" fill="#E24329"/>
<path d="M48.9406 18.3751L26.0981 48.0498L35.6174 18.3706H48.9337L48.9406 18.3751Z" fill="#FC6D26"/>
<path d="M51.851 27.2537C52.1027 28.0617 51.8206 28.9596 51.1239 29.4754L26.0981 48.0498L48.9406 18.3751L48.9439 18.3706L51.851 27.2537Z" fill="#FCA326"/>
<path d="M43.2298 0.723208L48.9339 18.3705H35.6175H35.6074L41.3217 0.723208C41.6441 -0.174663 42.9163 -0.174663 43.2298 0.723208Z" fill="#E24329"/>
<path d="M16.5881 18.3705H16.5779H3.2627L8.96682 0.723208C9.28933 -0.174663 10.5614 -0.174663 10.8749 0.723208C10.8749 0.723208 16.5779 18.3705 16.5881 18.3705Z" fill="#E24329"/>
</g>
<defs>
<clipPath id="clip0_1_1612">
<rect width="52" height="48" fill="white" transform="translate(0.25 0.0498047)"/>
</clipPath>
</defs>
</svg>
