<svg width="49" height="49" viewBox="0 0 49 49" fill="none" xmlns="http://www.w3.org/2000/svg">
<g clip-path="url(#clip0_1_1595)">
<path d="M0.314087 6.49822C0.314087 2.93107 3.18482 0.0605469 6.71983 0.0605469C9.93345 0.0605469 12.5578 2.4063 13.0612 5.43783C16.5534 4.62371 20.2489 5.50201 23.3983 8.65145L18.6529 13.3968C16.457 11.2009 14.0898 11.6508 12.7184 13.0219C11.1867 14.5538 11.1867 17.0817 12.7184 18.6135L23.3768 29.272L18.6637 34.0172C9.26928 24.6764 13.3398 28.6935 7.97316 23.3376C5.10233 20.4989 4.22392 16.3962 5.31666 12.7435C2.43508 12.122 0.314087 9.5619 0.314087 6.49822Z" fill="#7AC043"/>
<path d="M14.1862 18.9669L18.9315 23.7125C20.0028 22.6412 28.5401 14.1039 29.6113 13.0219C31.1432 11.4902 33.6391 11.4902 35.1707 13.0219C36.5419 14.393 36.9917 16.7712 34.7959 18.9563L39.509 23.7017C42.8511 20.3597 43.6332 16.4604 42.6048 12.8613C45.7327 12.422 48.1642 9.73324 48.1642 6.48759C48.1642 2.93118 45.2935 0.0498047 41.7585 0.0498047C38.5127 0.0498047 35.8241 2.45994 35.385 5.57715C31.7644 4.51665 27.7045 5.41655 24.8552 8.26589C22.8949 10.3119 17.2389 15.9249 14.1862 18.9669Z" fill="#F9AE41"/>
<path d="M42.7121 35.2706C43.5904 31.7678 42.6156 27.9329 39.8948 25.2119C38.6308 23.9052 40.4303 25.7154 29.2362 14.5322L24.491 19.2777L35.1707 29.9573C36.7027 31.4894 36.7027 33.9852 35.1707 35.5168C33.7996 36.888 31.4216 37.3379 29.2362 35.142L24.5231 39.8874C27.4797 43.1223 31.8072 44.0437 35.5243 42.8866C36.1134 45.8219 38.7057 48.0392 41.8337 48.0392C45.3687 48.0392 48.2393 45.1683 48.2393 41.6015C48.2393 38.3662 45.8292 35.7098 42.7121 35.2706Z" fill="#EE4035"/>
<path d="M33.6817 29.5824L28.9685 24.8372C19.6491 34.0921 23.5697 30.2358 18.2886 35.5277C16.7569 37.0594 14.261 37.0594 12.7292 35.5277C11.3259 34.0921 10.9189 31.7463 13.0721 29.5933L8.35882 24.8479C5.12381 28.0829 4.28829 31.8321 5.19883 35.3779C2.33885 36.0205 0.25 38.5806 0.25 41.612C0.25 45.1793 3.12073 48.0499 6.65575 48.0499C9.71931 48.0499 12.2795 45.9289 12.9328 43.0474C16.4356 43.9257 20.2705 42.9833 23.0235 40.2625C26.4619 36.8345 24.3302 38.934 33.6817 29.5824Z" fill="#4F91CD"/>
</g>
<defs>
<clipPath id="clip0_1_1595">
<rect width="48" height="48" fill="white" transform="translate(0.25 0.0498047)"/>
</clipPath>
</defs>
</svg>
