<svg width="40" height="40" viewBox="0 0 40 40" fill="none" xmlns="http://www.w3.org/2000/svg">
<g id="Clip path group">
<mask id="mask0_28_1437" style="mask-type:luminance" maskUnits="userSpaceOnUse" x="0" y="0" width="40" height="40">
<g id="a">
<path id="Vector" d="M39.7156 39.4778H0.927734V0.689903H39.7156V39.4778Z" fill="white"/>
</g>
</mask>
<g mask="url(#mask0_28_1437)">
<g id="Group">
<path id="Vector_2" d="M34.8671 3.11426H5.77622C4.41258 3.16477 3.27622 3.64456 2.36713 4.55365C1.45804 5.46274 0.97824 6.59911 0.927734 7.96274V32.2052C0.97824 33.5688 1.45804 34.7052 2.36713 35.6143C3.27622 36.5233 4.41258 37.0031 5.77622 37.0536H34.8671C36.2308 37.0031 37.3671 36.5233 38.2762 35.6143C39.1853 34.7052 39.6651 33.5688 39.7156 32.2052V7.96274C39.6651 6.59911 39.1853 5.46274 38.2762 4.55365C37.3671 3.64456 36.2308 3.16477 34.8671 3.11426ZM37.2914 32.2052C37.2914 32.9122 37.0641 33.493 36.6096 33.9476C36.155 34.4021 35.5742 34.6294 34.8671 34.6294H5.77622C5.06915 34.6294 4.48834 34.4021 4.0338 33.9476C3.57925 33.493 3.35198 32.9122 3.35198 32.2052V24.9324C3.35198 24.2254 3.57925 23.6446 4.0338 23.19C4.48834 22.7355 5.06915 22.5082 5.77622 22.5082H34.8671C35.5742 22.5082 36.155 22.7355 36.6096 23.19C37.0641 23.6446 37.2914 24.2254 37.2914 24.9324V32.2052ZM37.2914 20.7658C36.5843 20.3112 35.7762 20.084 34.8671 20.084H5.77622C4.86713 20.084 4.05904 20.3112 3.35198 20.7658V7.96274C3.35198 7.25568 3.57925 6.67486 4.0338 6.22032C4.48834 5.76577 5.06915 5.5385 5.77622 5.5385H34.8671C35.5742 5.5385 36.155 5.76577 36.6096 6.22032C37.0641 6.67486 37.2914 7.25568 37.2914 7.96274V20.7658ZM25.1702 26.7506C24.059 26.8516 23.4529 27.4576 23.352 28.5688C23.4529 29.68 24.059 30.286 25.1702 30.387C26.2813 30.286 26.8874 29.68 26.9883 28.5688C26.8874 27.4576 26.2813 26.8516 25.1702 26.7506ZM32.4429 26.7506C31.3317 26.8516 30.7257 27.4576 30.6247 28.5688C30.7257 29.68 31.3317 30.286 32.4429 30.387C33.554 30.286 34.1601 29.68 34.2611 28.5688C34.1601 27.4576 33.554 26.8516 32.4429 26.7506Z" fill="#FD6B2A"/>
</g>
</g>
</g>
</svg>
