<svg width="40" height="36" viewBox="0 0 40 36" fill="none" xmlns="http://www.w3.org/2000/svg">
<g id="Clip path group">
<mask id="mask0_28_1431" style="mask-type:luminance" maskUnits="userSpaceOnUse" x="0" y="0" width="40" height="36">
<g id="a">
<path id="Vector" d="M39.0963 35.4324H0.183594V0.843281H39.0963V35.4324Z" fill="white"/>
</g>
</mask>
<g mask="url(#mask0_28_1431)">
<g id="Group">
<path id="Vector_2" d="M39.0963 10.7742V9.49063C39.0513 8.27461 38.6234 7.26125 37.8127 6.45057C37.0021 5.63989 35.9887 5.21203 34.7727 5.16699H4.50723C3.29121 5.21203 2.27786 5.63989 1.46717 6.45057C0.656491 7.26125 0.228632 8.27461 0.183594 9.49063V10.7742C1.53473 11.3147 2.25534 12.328 2.34541 13.8143C2.25534 15.3005 1.53473 16.3139 0.183594 16.8543V28.947C0.183594 29.5775 0.386264 30.0955 0.791605 30.5008C1.19695 30.9061 1.71489 31.1088 2.34541 31.1088H36.9345C37.565 31.1088 38.083 30.9061 38.4883 30.5008C38.8937 30.0955 39.0963 29.5775 39.0963 28.947V16.8543C37.7452 16.3139 37.0245 15.3005 36.9345 13.8143C37.0245 12.328 37.7452 11.3147 39.0963 10.7742ZM36.9345 28.947H33.6918V27.8661C33.6467 27.1905 33.2864 26.8302 32.6109 26.7852C31.9353 26.8302 31.575 27.1905 31.53 27.8661V28.947H25.0445V27.8661C24.9994 27.1905 24.6392 26.8302 23.9636 26.7852C23.288 26.8302 22.9278 27.1905 22.8827 27.8661V28.947H16.3972V27.8661C16.3522 27.1905 15.9919 26.8302 15.3163 26.7852C14.6408 26.8302 14.2805 27.1905 14.2354 27.8661V28.947H7.74996V27.8661C7.70492 27.1905 7.34462 26.8302 6.66905 26.7852C5.99348 26.8302 5.63318 27.1905 5.58814 27.8661V28.947H2.34541V22.4615H36.9345V28.947ZM36.9345 9.49063C35.5383 10.5715 34.8178 12.0127 34.7727 13.8143C34.8178 15.6158 35.5383 17.057 36.9345 18.1379V20.2997H2.34541V18.1379C3.74159 17.057 4.46219 15.6158 4.50723 13.8143C4.46219 12.0127 3.74159 10.5715 2.34541 9.49063C2.34541 8.90514 2.54808 8.40972 2.95342 8.00438C3.35876 7.55401 3.8767 7.32881 4.50723 7.32881H34.7727C35.4032 7.32881 35.9212 7.53148 36.3265 7.93682C36.7318 8.34216 36.9345 8.8601 36.9345 9.49063ZM10.9927 9.49063C10.3171 9.53567 9.95682 9.89597 9.91178 10.5715V17.057C9.95682 17.7326 10.3171 18.0928 10.9927 18.1379C11.6683 18.0928 12.0285 17.7326 12.0736 17.057V10.5715C12.0285 9.89597 11.6683 9.53567 10.9927 9.49063ZM19.64 9.49063C18.9644 9.53567 18.6041 9.89597 18.559 10.5715V17.057C18.6041 17.7326 18.9644 18.0928 19.64 18.1379C20.3155 18.0928 20.6758 17.7326 20.7209 17.057V10.5715C20.6758 9.89597 20.3155 9.53567 19.64 9.49063ZM28.2872 9.49063C27.6117 9.53567 27.2514 9.89597 27.2063 10.5715V17.057C27.2514 17.7326 27.6117 18.0928 28.2872 18.1379C28.9628 18.0928 29.3231 17.7326 29.3681 17.057V10.5715C29.3231 9.89597 28.9628 9.53567 28.2872 9.49063Z" fill="#FD6B2A"/>
</g>
</g>
</g>
</svg>
