<svg width="25" height="20" viewBox="0 0 25 20" fill="none" xmlns="http://www.w3.org/2000/svg">
<g id="Clip path group">
<mask id="mask0_28_1460" style="mask-type:luminance" maskUnits="userSpaceOnUse" x="0" y="0" width="25" height="20">
<g id="a">
<path id="Vector" d="M24.3091 19.6128H0.796875V0.803038H24.3091V19.6128Z" fill="white"/>
</g>
</mask>
<g mask="url(#mask0_28_1460)">
<g id="Group">
<path id="Vector_2" d="M11.7815 14.1392C11.512 14.3841 11.2426 14.3841 10.9732 14.1392L8.62202 11.788C8.37712 11.5186 8.37712 11.2492 8.62202 10.9798C8.89143 10.7349 9.16083 10.7349 9.43028 10.9798L11.3774 12.8901L15.6757 8.62853C15.9451 8.38363 16.2145 8.38363 16.4839 8.62853C16.7288 8.89794 16.7288 9.16739 16.4839 9.43679L11.7815 14.1392ZM10.7896 1.979C11.8917 1.979 12.8958 2.22393 13.802 2.71376C14.7327 3.2036 15.492 3.87712 16.0798 4.73434C16.6186 4.46493 17.2064 4.33022 17.8432 4.33022C19.0188 4.35472 19.9863 4.75883 20.7455 5.54256C21.5292 6.30182 21.9334 7.26925 21.9579 8.44486C21.9579 8.81226 21.9089 9.19184 21.8109 9.58374C22.5702 9.9756 23.1702 10.5389 23.611 11.2737C24.0764 12.0084 24.3091 12.8289 24.3091 13.7351C24.2846 15.0577 23.8315 16.172 22.9498 17.0783C22.0436 17.96 20.9292 18.413 19.6066 18.4375H6.08713C4.59312 18.3885 3.34403 17.8742 2.33986 16.8946C1.36019 15.8904 0.84586 14.6413 0.796875 13.1473C0.821365 11.9717 1.15201 10.943 1.7888 10.0613C2.42558 9.17961 3.27056 8.54281 4.3237 8.15096C4.44617 6.38754 5.10742 4.93028 6.30753 3.77916C7.50764 2.62804 9.00165 2.02799 10.7896 1.979ZM10.7896 3.15461C9.34455 3.17911 8.11994 3.66894 7.11579 4.62413C6.13608 5.57933 5.59727 6.7794 5.49932 8.22445C5.45032 8.71426 5.19315 9.05716 4.72782 9.25311C3.8951 9.54702 3.23382 10.0491 2.74398 10.7594C2.25414 11.4451 1.99697 12.2411 1.97248 13.1473C1.99697 14.3229 2.40109 15.2903 3.18483 16.0496C3.94408 16.8333 4.91151 17.2374 6.08713 17.2619H19.6066C20.6108 17.2374 21.4435 16.8946 22.1048 16.2333C22.7661 15.572 23.109 14.7393 23.1335 13.7351C23.1335 13.0493 22.962 12.437 22.6191 11.8982C22.2763 11.3594 21.8231 10.9308 21.2598 10.6124C20.7455 10.294 20.5496 9.82864 20.672 9.21634C20.7455 8.99594 20.7822 8.73876 20.7822 8.44486C20.7577 7.61215 20.4761 6.91412 19.9373 6.35081C19.374 5.81196 18.6759 5.53033 17.8432 5.50583C17.3779 5.50583 16.9615 5.60379 16.5941 5.79974C16.0063 6.02019 15.5165 5.88546 15.1246 5.39562C14.6348 4.70985 14.0102 4.17103 13.251 3.77916C12.5163 3.3628 11.6958 3.15461 10.7896 3.15461Z" fill="#FD6B2A"/>
</g>
</g>
</g>
</svg>
