<svg width="62" height="22" viewBox="0 0 62 22" fill="none" xmlns="http://www.w3.org/2000/svg">
<path d="M0.758765 16.7298C0.758765 16.5298 0.868765 16.3998 1.08876 16.3398L4.26876 15.7398C4.46877 15.6998 4.56877 15.7798 4.56877 15.9798C4.74877 17.3198 5.49877 17.9898 6.81877 17.9898C7.67877 17.9898 8.38877 17.6598 8.94877 16.9998C9.52877 16.3198 9.81876 15.4898 9.81876 14.5098C9.81876 13.7898 9.61877 13.2298 9.21877 12.8298C8.81877 12.4298 8.24877 12.2298 7.50877 12.2298H6.69877C6.49877 12.2298 6.41877 12.1298 6.45877 11.9298L6.93877 9.1698C6.97877 8.9698 7.09877 8.8698 7.29877 8.8698H8.04877C8.90877 8.8698 9.61877 8.5598 10.1788 7.9398C10.7388 7.2998 11.0188 6.5198 11.0188 5.5998C11.0188 5.0198 10.8588 4.5598 10.5388 4.2198C10.2188 3.8798 9.76877 3.7098 9.18877 3.7098C8.00877 3.7098 7.12877 4.3698 6.54877 5.6898C6.48877 5.8698 6.36877 5.9398 6.18877 5.8998L3.12877 5.2998C2.96877 5.2598 2.91877 5.1498 2.97876 4.9698C3.45877 3.6098 4.31877 2.4998 5.55877 1.6398C6.79877 0.759804 8.25877 0.319803 9.93877 0.319803C11.5788 0.319803 12.8488 0.729803 13.7488 1.5498C14.6688 2.3498 15.1288 3.4198 15.1288 4.7598C15.1288 5.8998 14.8588 6.9498 14.3188 7.9098C13.7788 8.8698 13.0188 9.6198 12.0388 10.1598V10.2198C12.5588 10.4998 12.9988 10.9598 13.3588 11.5998C13.7188 12.2398 13.8988 13.0098 13.8988 13.9098C13.8988 16.1098 13.1888 17.9098 11.7688 19.3098C10.3488 20.6898 8.55877 21.3798 6.39877 21.3798C4.69877 21.3798 3.33876 20.9698 2.31876 20.1498C1.29876 19.3098 0.778765 18.1698 0.758765 16.7298ZM16.8827 16.4598C16.8827 15.3398 17.1527 13.2698 17.6927 10.2498C18.2327 7.2098 18.7227 5.2298 19.1627 4.3098C20.4627 1.6498 22.6427 0.319803 25.7027 0.319803C27.3227 0.319803 28.6128 0.749804 29.5728 1.6098C30.5527 2.4698 31.0427 3.6798 31.0427 5.2398C31.0427 6.3598 30.7727 8.4398 30.2328 11.4798C29.6928 14.4998 29.2028 16.4698 28.7627 17.3898C27.4627 20.0498 25.2827 21.3798 22.2227 21.3798C20.6027 21.3798 19.3027 20.9498 18.3227 20.0898C17.3627 19.2298 16.8827 18.0198 16.8827 16.4598ZM20.9327 16.1298C20.9327 16.6898 21.0827 17.1398 21.3827 17.4798C21.7027 17.8198 22.1427 17.9898 22.7027 17.9898C23.7427 17.9898 24.4827 17.5098 24.9227 16.5498C25.2227 15.9698 25.6427 14.2098 26.1828 11.2698C26.7227 8.3098 26.9927 6.4098 26.9927 5.5698C26.9927 5.0098 26.8327 4.5598 26.5127 4.2198C26.2127 3.8798 25.7827 3.7098 25.2227 3.7098C24.1827 3.7098 23.4427 4.1898 23.0027 5.1498C22.7027 5.7298 22.2827 7.4998 21.7427 10.4598C21.2027 13.3998 20.9327 15.2898 20.9327 16.1298ZM32.4667 16.4598C32.4667 15.3398 32.7367 13.2698 33.2767 10.2498C33.8167 7.2098 34.3067 5.2298 34.7467 4.3098C36.0467 1.6498 38.2267 0.319803 41.2867 0.319803C42.9067 0.319803 44.1967 0.749804 45.1567 1.6098C46.1367 2.4698 46.6267 3.6798 46.6267 5.2398C46.6267 6.3598 46.3567 8.4398 45.8167 11.4798C45.2767 14.4998 44.7867 16.4698 44.3467 17.3898C43.0467 20.0498 40.8667 21.3798 37.8067 21.3798C36.1867 21.3798 34.8867 20.9498 33.9067 20.0898C32.9467 19.2298 32.4667 18.0198 32.4667 16.4598ZM36.5167 16.1298C36.5167 16.6898 36.6667 17.1398 36.9667 17.4798C37.2867 17.8198 37.7267 17.9898 38.2867 17.9898C39.3267 17.9898 40.0667 17.5098 40.5067 16.5498C40.8067 15.9698 41.2267 14.2098 41.7667 11.2698C42.3067 8.3098 42.5767 6.4098 42.5767 5.5698C42.5767 5.0098 42.4167 4.5598 42.0967 4.2198C41.7967 3.8798 41.3667 3.7098 40.8067 3.7098C39.7667 3.7098 39.0267 4.1898 38.5867 5.1498C38.2867 5.7298 37.8667 7.4998 37.3267 10.4598C36.7867 13.3998 36.5167 15.2898 36.5167 16.1298ZM48.3807 14.4798C48.1807 14.4798 48.0807 14.3798 48.0807 14.1798V11.3598C48.0807 11.1598 48.1807 11.0598 48.3807 11.0598H52.8207C52.9407 11.0598 53.0007 10.9998 53.0007 10.8798V6.3198C53.0007 6.1198 53.1007 6.0198 53.3007 6.0198H56.2107C56.4107 6.0198 56.5107 6.1198 56.5107 6.3198V10.8798C56.5107 10.9998 56.5707 11.0598 56.6907 11.0598H61.1307C61.3307 11.0598 61.4307 11.1598 61.4307 11.3598V14.1798C61.4307 14.3798 61.3307 14.4798 61.1307 14.4798H56.6907C56.5707 14.4798 56.5107 14.5398 56.5107 14.6598V19.2198C56.5107 19.4198 56.4107 19.5198 56.2107 19.5198H53.3007C53.1007 19.5198 53.0007 19.4198 53.0007 19.2198V14.6598C53.0007 14.5398 52.9407 14.4798 52.8207 14.4798H48.3807Z" fill="black"/>
</svg>
