<svg width="49" height="49" viewBox="0 0 49 49" fill="none" xmlns="http://www.w3.org/2000/svg">
<g clip-path="url(#clip0_1_1468)">
<path d="M15.7973 36.8807C16.1808 36.7049 16.5642 36.5611 16.9637 36.4013C17.4111 36.2416 17.8585 36.0818 18.3059 35.938C18.8652 35.7622 19.4404 35.6184 20.0156 35.4906C20.7986 35.3308 21.5816 35.2029 22.3645 35.123C21.9171 36.5132 21.4377 37.9033 20.8945 39.2775C20.9105 39.5491 20.9264 39.8048 20.9424 40.0764C22.013 39.8687 23.1155 39.7569 24.25 39.7569C25.3845 39.7569 26.487 39.8687 27.5576 40.0764C27.5576 39.8048 27.5736 39.5332 27.6055 39.2775C27.0782 37.9033 26.5829 36.5132 26.1355 35.123C26.9184 35.2029 27.7174 35.3148 28.4844 35.4906C29.0596 35.6184 29.6188 35.7622 30.1941 35.938C30.6415 36.0818 31.0889 36.2256 31.5363 36.4013C31.9358 36.5451 32.3192 36.7049 32.7027 36.8807C35.4191 38.0951 37.8958 39.8847 39.9251 42.2176C45.0223 37.8234 48.25 31.3201 48.25 24.0498C48.25 10.8035 37.5123 0.0498047 24.25 0.0498047C11.0037 0.0498047 0.25 10.7875 0.25 24.0498C0.25 31.3041 3.4777 37.8075 8.5749 42.2176C10.6042 39.8847 13.0809 38.0951 15.7973 36.8807Z" fill="#A0DBE8"/>
<path d="M17.3792 41.2269C18.4977 40.7316 19.6961 40.3481 20.9264 40.1084C20.9264 39.8368 20.9105 39.5651 20.8785 39.3095C21.4058 37.9353 21.9011 36.5452 22.3486 35.155C21.5656 35.2349 20.7667 35.3468 19.9997 35.5225C19.4245 35.6504 18.8652 35.7942 18.29 35.9699C17.8426 36.1137 17.3952 36.2576 16.9478 36.4333L18.6894 36.8647L17.3792 41.2269Z" fill="#525353"/>
<path d="M13.2566 43.7995C13.3045 43.3521 13.3205 42.9047 13.3205 42.4413C13.3205 42.1697 13.5442 41.946 13.8158 41.946H14.2473L15.7812 36.8647C13.0648 38.0791 10.5881 39.8687 8.55884 42.2016C9.67735 43.1763 10.8917 44.0392 12.17 44.7902C12.5375 44.4546 12.8891 44.1191 13.2566 43.7995Z" fill="#525353"/>
<path d="M32.6868 36.8806L34.2207 41.9618H34.6521C34.9238 41.9618 35.1475 42.1855 35.1475 42.4572C35.1475 42.9206 35.1794 43.368 35.2114 43.8154C35.5789 44.1349 35.9464 44.4545 36.282 44.806C37.5762 44.0551 38.7746 43.1922 39.8932 42.2175C37.8798 39.8846 35.4031 38.095 32.6868 36.8806Z" fill="#525353"/>
<path d="M29.7626 36.8328L31.5043 36.4013C31.0569 36.2416 30.6095 36.0818 30.1621 35.938C29.6028 35.7622 29.0276 35.6184 28.4524 35.4906C27.6694 35.3308 26.8865 35.2029 26.1035 35.123C26.5509 36.5132 27.0303 37.9033 27.5736 39.2775C27.5576 39.5491 27.5416 39.8048 27.5256 40.0764C28.772 40.3161 29.9544 40.6996 31.0729 41.195L29.7626 36.8328Z" fill="#525353"/>
<path d="M24.2339 41.9619H27.6214C27.5575 41.3388 27.5255 40.7156 27.5415 40.1084C26.4709 39.9007 25.3684 39.7888 24.2339 39.7888C23.0994 39.7888 21.9969 39.9007 20.9263 40.1084C20.9423 40.7316 20.9104 41.3388 20.8464 41.9619H24.2339Z" fill="black"/>
<path d="M12.186 44.7902C12.4577 44.95 12.7453 45.1098 13.0329 45.2696C13.1288 44.7902 13.2087 44.2949 13.2566 43.7996C12.8891 44.1191 12.5376 44.4547 12.186 44.7902Z" fill="black"/>
<path d="M17.1555 41.9619H20.8626C20.9265 41.3388 20.9584 40.7156 20.9425 40.1084C19.6961 40.3481 18.5137 40.7316 17.3952 41.2269L17.1555 41.9619Z" fill="black"/>
<path d="M35.2273 43.7996C35.2752 44.2949 35.3551 44.7902 35.451 45.2696C35.7386 45.1258 36.0103 44.966 36.2979 44.7902C35.9463 44.4547 35.5948 44.1191 35.2273 43.7996Z" fill="black"/>
<path d="M31.3285 41.9619L31.1048 41.2269C29.9863 40.7316 28.7879 40.3481 27.5575 40.1084C27.5416 40.7316 27.5735 41.3388 27.6374 41.9619H31.3285Z" fill="black"/>
<path d="M17.1556 41.962L17.3793 41.2269L18.7055 36.8328L16.9638 36.4014C16.5644 36.5452 16.1809 36.705 15.7974 36.8807L14.2634 41.962H15.9092H17.1556Z" fill="#AA9678"/>
<path d="M31.1048 41.2269L31.3285 41.962H32.5748H34.2206L32.6867 36.8807C32.3032 36.705 31.9197 36.5612 31.5202 36.4014L29.7786 36.8328L31.1048 41.2269Z" fill="#AA9678"/>
<path d="M14.3113 42.9846C14.3273 42.9686 14.3432 42.9686 14.3592 42.9526H14.3113C14.3113 42.9526 14.3113 42.9686 14.3113 42.9846Z" fill="#C0B098"/>
<path d="M24.2341 42.9526H20.7028H16.852H14.3593C14.3433 42.9686 14.3273 42.9686 14.3114 42.9846C14.2794 43.9273 14.1516 44.8381 13.9438 45.7329C17.0597 47.2189 20.543 48.0498 24.2341 48.0498V42.9526Z" fill="#C0B098"/>
<path d="M34.1727 42.9526H34.1248C34.1407 42.9686 34.1567 42.9686 34.1727 42.9846C34.1727 42.9686 34.1727 42.9526 34.1727 42.9526Z" fill="#AA9678"/>
<path d="M34.1249 42.9526H31.6323H27.7654H24.2341V48.0498C27.9092 48.0498 31.4086 47.2189 34.5244 45.7329C34.3167 44.8381 34.1889 43.9114 34.1569 42.9846C34.1569 42.9686 34.1409 42.9526 34.1249 42.9526Z" fill="#AA9678"/>
<path d="M25.2341 42.4573H24.2341V43.4573H25.2341V42.4573Z" fill="#786453"/>
<path d="M35.2275 43.7996C35.1795 43.3522 35.1636 42.9048 35.1636 42.4414C35.1636 42.1697 34.9399 41.946 34.6682 41.946H34.2368H32.559H31.3127H27.6056H24.2182H20.8307H17.1236H15.8773H14.2315H13.8C13.5284 41.946 13.3047 42.1697 13.3047 42.4414C13.3047 42.9048 13.2727 43.3522 13.2408 43.7996C13.1929 44.2949 13.113 44.7903 13.0171 45.2696C13.3207 45.4294 13.6243 45.5892 13.9279 45.733C14.1356 44.8382 14.2634 43.9114 14.2954 42.9847C14.2954 42.9687 14.2954 42.9687 14.2954 42.9527H14.3433H16.836H20.6869H24.2182H27.7654H31.6163H34.109H34.1569C34.1569 42.9687 34.1569 42.9687 34.1569 42.9847C34.1889 43.9274 34.3167 44.8382 34.5244 45.733C34.828 45.5892 35.1316 45.4294 35.4352 45.2696C35.3393 44.7903 35.2754 44.2949 35.2275 43.7996Z" fill="#8B7460"/>
<path d="M31.1048 38.5265C31.0249 38.4466 30.961 38.3508 30.8811 38.2549C30.961 38.3667 31.0409 38.4466 31.1048 38.5265Z" fill="#525353"/>
<path d="M39.0847 18.3746C39.6352 18.3306 40.0458 17.8486 40.0018 17.2981C39.9578 16.7476 39.4758 16.337 38.9253 16.381C38.3748 16.425 37.9642 16.907 38.0082 17.4575C38.0522 18.008 38.5342 18.4186 39.0847 18.3746Z" fill="white"/>
<path d="M40.2127 18.7129C40.005 18.4253 39.7972 18.1697 39.5895 17.946C39.4936 17.8341 39.3978 17.7383 39.3019 17.6424C39.2699 17.6104 39.222 17.5785 39.19 17.5465C39.1261 17.4826 39.0622 17.4347 38.9983 17.3867V19.6237L39.8452 23.5385C39.8611 23.5705 39.8611 23.6024 39.8771 23.6344L40.4683 24.3055H41.0915C41.0915 24.2416 41.0915 24.1936 41.0915 24.1297C41.0915 22.2762 40.7879 20.5026 40.2446 18.8408C40.2287 18.7769 40.2287 18.7449 40.2127 18.7129Z" fill="#BBBCBD"/>
<path d="M39.941 23.906V23.922C39.941 23.922 39.941 23.922 39.941 23.938C39.957 24.0338 39.957 24.1297 39.957 24.2256C39.957 24.2416 39.957 24.2575 39.957 24.2735C39.957 24.2895 39.957 24.3055 39.957 24.3214C39.957 24.4173 39.957 24.5132 39.941 24.5931V24.6091V24.625C39.925 24.7209 39.909 24.8168 39.8931 24.9127L40.4843 24.2575L39.8931 23.5864C39.909 23.6983 39.925 23.7941 39.941 23.906Z" fill="#676A6A"/>
<path d="M39.925 24.657C39.925 24.641 39.925 24.641 39.925 24.625C39.941 24.5291 39.941 24.4333 39.941 24.3534C39.941 24.3374 39.941 24.3054 39.941 24.2895C39.941 24.2735 39.941 24.2575 39.941 24.2256C39.941 24.1297 39.941 24.0338 39.925 23.9379C39.925 23.922 39.925 23.922 39.925 23.906C39.9091 23.8101 39.8931 23.7142 39.8771 23.6184C39.8611 23.5864 39.8611 23.5544 39.8451 23.5225C39.7812 23.3307 39.7173 23.171 39.6214 23.0272C39.6055 23.0112 39.5895 22.9952 39.5895 22.9792C39.5575 22.9473 39.5415 22.9153 39.5096 22.8833C39.4776 22.8354 39.4297 22.8035 39.3818 22.7715C39.3658 22.7555 39.3498 22.7555 39.3338 22.7395C39.3019 22.7076 39.2539 22.6916 39.222 22.6756C39.206 22.6756 39.19 22.6596 39.174 22.6596C39.1261 22.6437 39.0622 22.6277 38.9983 22.6277C38.9344 22.6277 38.8864 22.6437 38.8225 22.6596C38.8065 22.6596 38.7905 22.6756 38.7746 22.6756C38.7426 22.6916 38.6947 22.7076 38.6627 22.7395C38.6467 22.7555 38.6308 22.7555 38.6148 22.7715C38.5668 22.8035 38.5349 22.8514 38.487 22.8833C38.455 22.9153 38.439 22.9473 38.4071 22.9792C38.3911 22.9952 38.3751 23.0112 38.3751 23.0272C38.2792 23.171 38.1993 23.3307 38.1514 23.5225V23.5385C38.1194 23.6184 38.1035 23.7142 38.0875 23.8101C38.0875 23.8421 38.0715 23.858 38.0715 23.89C38.0555 24.0019 38.0555 24.0977 38.0396 24.2096C38.0396 24.2256 38.0396 24.2415 38.0396 24.2575C38.0396 25.1683 38.471 25.9193 38.9983 25.9193C39.0941 25.9193 39.174 25.8873 39.2699 25.8554C39.2859 25.8554 39.3019 25.8394 39.3178 25.8394C39.3498 25.8234 39.3818 25.7915 39.4137 25.7755C39.4297 25.7595 39.4457 25.7435 39.4617 25.7276C39.5096 25.6956 39.5415 25.6477 39.5895 25.5997C39.6214 25.5678 39.6374 25.5358 39.6694 25.4879C39.6854 25.4559 39.7013 25.4399 39.7173 25.408C39.7493 25.36 39.7652 25.3121 39.7972 25.2482C39.8132 25.2322 39.8132 25.2162 39.8292 25.1843C39.8611 25.1044 39.8771 25.0245 39.9091 24.9446C39.9091 24.8487 39.925 24.7529 39.925 24.657ZM39.0302 24.0498C38.8225 24.0498 38.6627 23.7782 38.6627 23.4266C38.6627 23.0911 38.8225 22.8035 39.0302 22.8035C39.238 22.8035 39.3977 23.0751 39.3977 23.4266C39.3977 23.7782 39.222 24.0498 39.0302 24.0498Z" fill="black"/>
<path d="M39.0303 24.4265C39.5826 24.4265 40.0303 23.9788 40.0303 23.4265C40.0303 22.8742 39.5826 22.4265 39.0303 22.4265C38.478 22.4265 38.0303 22.8742 38.0303 23.4265C38.0303 23.9788 38.478 24.4265 39.0303 24.4265Z" fill="white"/>
<path d="M38.1355 23.5224C38.1994 23.3307 38.2633 23.1709 38.3592 23.0271C38.3752 23.0111 38.3912 22.9951 38.3912 22.9792C38.4231 22.9472 38.4391 22.9153 38.4711 22.8833C38.503 22.8354 38.5509 22.8034 38.5989 22.7714C38.6149 22.7555 38.6308 22.7555 38.6468 22.7395C38.6788 22.7075 38.7267 22.6916 38.7587 22.6756C38.7746 22.6756 38.7906 22.6596 38.8066 22.6596C38.8545 22.6436 38.9185 22.6276 38.9824 22.6276C39.0463 22.6276 39.0942 22.6436 39.1581 22.6596C39.1741 22.6596 39.1901 22.6756 39.2061 22.6756C39.238 22.6916 39.286 22.7075 39.3179 22.7395C39.3339 22.7555 39.3499 22.7555 39.3659 22.7714C39.4138 22.8034 39.4457 22.8513 39.4937 22.8833C39.5256 22.9153 39.5416 22.9472 39.5736 22.9792C39.5896 22.9951 39.6055 23.0111 39.6055 23.0271C39.7014 23.1709 39.7813 23.3307 39.8292 23.5224L38.9824 19.6077L38.1355 23.5224Z" fill="#909393"/>
<path d="M27.6695 24.2415C27.6695 24.1617 27.6695 24.0818 27.6536 24.0019C27.6376 23.922 27.6376 23.8581 27.6216 23.7782C27.6056 23.6983 27.5896 23.6344 27.5577 23.5704C27.5417 23.5065 27.5098 23.4266 27.4778 23.3627C27.4458 23.2988 27.4139 23.2349 27.3819 23.171C27.2701 22.9792 27.1422 22.8035 26.9825 22.6597C26.7747 22.4679 26.5351 22.3081 26.2794 22.1963C26.1516 22.1483 26.0078 22.1004 25.8799 22.0684C25.8799 22.0684 25.8799 22.0684 25.8639 22.0684C25.7201 22.0365 25.5763 22.0205 25.4325 22.0205C25.2887 22.0205 25.1449 22.0365 25.0011 22.0684H24.9851C24.8413 22.1004 24.7135 22.1324 24.5857 22.1803C24.5857 22.1803 24.5857 22.1803 24.5697 22.1803C24.4418 22.2282 24.314 22.2921 24.2022 22.372C24.0903 22.4519 23.9785 22.5318 23.8826 22.6277H23.8666C23.7068 22.7875 23.563 22.9633 23.4512 23.155C23.4192 23.2189 23.3873 23.2828 23.3553 23.3467C23.3553 23.3467 23.3553 23.3627 23.3393 23.3627C23.3074 23.4266 23.2914 23.4746 23.2754 23.5385C23.2754 23.5545 23.2594 23.5545 23.2594 23.5704C23.2434 23.6344 23.2275 23.6823 23.2115 23.7462C23.2115 23.7622 23.1955 23.7782 23.1955 23.7941C23.1795 23.8581 23.1795 23.906 23.1635 23.9699C23.1635 23.9859 23.1635 24.0019 23.1476 24.0178C23.1476 24.0977 23.1316 24.1776 23.1316 24.2575C23.1316 24.4013 23.1476 24.5451 23.1795 24.6889C23.1795 24.6889 23.1795 24.6889 23.1795 24.7049C23.2115 24.8487 23.2434 24.9766 23.3074 25.1204C23.4192 25.376 23.579 25.6157 23.7707 25.8234C23.9305 25.9832 24.1063 26.127 24.298 26.2389C24.362 26.2708 24.4259 26.3028 24.4898 26.3348H24.5058C24.5697 26.3667 24.6336 26.3827 24.6815 26.3987C24.6975 26.3987 24.6975 26.3987 24.7135 26.4146C24.7774 26.4306 24.8253 26.4466 24.8892 26.4626C24.9052 26.4626 24.9212 26.4786 24.9372 26.4786C25.0011 26.4945 25.049 26.4945 25.113 26.5105C25.1289 26.5105 25.1449 26.5105 25.1609 26.5265C25.2408 26.5265 25.3207 26.5425 25.4006 26.5425C25.7201 26.5425 26.0078 26.4786 26.2794 26.3667C26.4072 26.3028 26.5351 26.2389 26.6629 26.159C26.9026 25.9992 27.1103 25.7915 27.2701 25.5518C27.35 25.424 27.4139 25.2961 27.4778 25.1683C27.5896 24.8967 27.6536 24.5931 27.6536 24.2895V24.2735C27.6695 24.2415 27.6695 24.2415 27.6695 24.2415ZM25.4165 23.9699C24.9532 23.9699 24.5697 23.5864 24.5697 23.123C24.5697 22.6597 24.9532 22.2762 25.4165 22.2762C25.8799 22.2762 26.2634 22.6597 26.2634 23.123C26.2634 23.5864 25.8799 23.9699 25.4165 23.9699Z" fill="black"/>
<path d="M25.4165 24.123C25.9688 24.123 26.4165 23.6753 26.4165 23.123C26.4165 22.5708 25.9688 22.123 25.4165 22.123C24.8642 22.123 24.4165 22.5708 24.4165 23.123C24.4165 23.6753 24.8642 24.123 25.4165 24.123Z" fill="white"/>
<path d="M23.8505 22.6275L25.4164 17.8499C25.4164 17.8499 25.4164 17.5622 25.4164 17.2906C25.4164 17.2107 25.4164 17.1308 25.4164 17.0669C25.4164 17.0349 25.4164 17.019 25.4164 17.003C25.4164 16.971 25.4164 16.9391 25.4164 16.9071C25.4164 16.8911 25.4164 16.8592 25.4164 16.8432C25.4164 16.8272 25.4164 16.7953 25.4164 16.7793C25.4164 16.7633 25.4164 16.7473 25.4164 16.7473C25.4164 16.7314 25.4164 16.7314 25.4164 16.7314C24.5536 16.5556 23.6588 16.4597 22.748 16.4597C22.4444 16.4597 22.1408 16.4757 21.8372 16.4917C21.7893 16.4917 21.7573 16.4917 21.7094 16.5077C20.1435 16.6195 18.6095 17.0349 17.1874 17.6901C15.973 18.2493 14.8226 18.9843 13.8159 19.8472C13.5443 20.0869 13.2726 20.3266 13.017 20.5822C12.969 20.6302 12.9211 20.6781 12.8732 20.726C12.6335 20.9657 12.3938 21.2214 12.1701 21.477C12.1222 21.5409 12.0742 21.5889 12.0263 21.6528C11.8026 21.9244 11.5789 22.1961 11.3712 22.4677C11.3552 22.4837 11.3392 22.5156 11.3232 22.5316C11.1315 22.8033 10.9397 23.0749 10.748 23.3625C10.716 23.4104 10.6681 23.4744 10.6361 23.5223C10.4923 23.762 10.3485 24.0017 10.2207 24.2413H17.2993H17.3152L23.8505 22.6275Z" fill="#BBBCBD"/>
<path d="M29.8426 22.1004C29.8586 21.9087 29.8746 21.7329 29.8746 21.5411C29.8906 21.2855 29.8906 21.0458 29.9065 20.7901C29.9065 20.5984 29.9065 20.4067 29.9065 20.1989C29.9065 20.135 29.9065 20.0871 29.9065 20.0232C29.9065 19.5118 29.8746 19.0165 29.8586 18.5052C29.8586 18.5052 29.8426 18.5052 29.8426 18.4892C29.8426 18.4892 29.8266 18.4892 29.8266 18.4732C29.7308 18.4253 29.5071 18.2975 29.2994 18.1696H29.2834C29.2354 18.1377 29.1875 18.1057 29.1396 18.0897C29.1076 18.0738 29.0756 18.0418 29.0437 18.0258L29.0277 18.0099C28.9958 17.9939 28.9638 17.9779 28.9478 17.9619C28.6282 17.7861 28.2927 17.6423 27.9571 17.4985C27.1582 17.163 26.0717 16.8594 25.4485 16.7156V17.147V17.2429V17.2748C25.4485 17.5624 25.4485 17.8341 25.4485 17.8341L26.9984 22.5957C27.1582 22.7395 27.302 22.9153 27.3979 23.1071C27.4298 23.171 27.4618 23.2349 27.4938 23.2988C27.5257 23.3627 27.5577 23.4266 27.5737 23.5065C27.5896 23.5704 27.6216 23.6503 27.6376 23.7142C27.6535 23.7941 27.6695 23.8581 27.6695 23.9379C27.6855 24.0178 27.6855 24.0977 27.6855 24.1776V24.1936H29.571C29.6988 23.5065 29.7947 22.8035 29.8426 22.1004C29.8426 22.1324 29.8426 22.1164 29.8426 22.1004Z" fill="#E2DDDB"/>
<path d="M27.6855 31.0483C28.1169 30.6169 28.5164 30.2174 28.8999 29.8179C29.1236 29.5783 29.3473 29.3386 29.571 29.1149C31.1529 27.4051 32.3033 25.7913 33.0064 23.7301C33.0224 23.6821 33.0384 23.6182 33.0543 23.5383C33.0543 23.5223 33.0543 23.5223 33.0543 23.5063C33.0703 23.4265 33.0863 23.3466 33.1023 23.2507C33.1023 23.1868 33.1182 23.1229 33.1182 23.0589C32.9425 22.1641 32.6069 21.2853 32.3033 20.4225C32.3033 20.4225 32.3033 20.4225 32.3033 20.4384C32.3033 20.4384 32.3033 20.4384 32.2874 20.4225C32.2234 20.3745 32.1755 20.3106 32.1116 20.2627C31.9358 20.1029 31.7601 19.9431 31.5683 19.7833C31.0091 19.3199 30.4338 18.8885 29.8266 18.521C29.8586 19.0323 29.8746 19.5277 29.8746 20.039C29.8746 20.1029 29.8746 20.1508 29.8746 20.2147C29.8746 20.4065 29.8746 20.5982 29.8746 20.8059C29.8746 21.0616 29.8586 21.3173 29.8426 21.5569C29.8266 21.7487 29.8266 21.9245 29.8107 22.1162C29.8107 22.1322 29.8107 22.1482 29.8107 22.1801C29.7467 22.8832 29.6668 23.5862 29.539 24.2733L29.3153 25.3279C28.8519 27.2134 27.9092 28.9071 27.1422 30.6648C26.9345 31.1282 26.7427 31.6075 26.567 32.0869C26.551 32.1348 26.535 32.1828 26.519 32.2307C26.7587 31.9751 26.9824 31.7514 27.1422 31.5916C27.3499 31.3838 27.5097 31.2081 27.6855 31.0483Z" fill="#FBB040"/>
<path d="M23.8665 22.6276C23.9623 22.5318 24.0742 22.4519 24.186 22.372C24.2979 22.2921 24.4257 22.2282 24.5535 22.1802C24.5535 22.1802 24.5535 22.1802 24.5695 22.1802C24.6973 22.1323 24.8252 22.0844 24.969 22.0684H24.985C25.1288 22.0364 25.2726 22.0205 25.4164 22.0205C25.5602 22.0205 25.704 22.0364 25.8478 22.0684C25.8478 22.0684 25.8478 22.0684 25.8638 22.0684C26.0076 22.1003 26.1354 22.1323 26.2633 22.1962C26.5189 22.3081 26.7586 22.4519 26.9663 22.6596L25.4164 17.8979L23.8665 22.6276Z" fill="#909393"/>
<path d="M23.3232 25.1204C23.2752 24.9925 23.2273 24.8487 23.1953 24.7049C23.1953 24.7049 23.1953 24.7049 23.1953 24.6889C23.1634 24.5451 23.1474 24.4013 23.1474 24.2575C23.1474 24.1776 23.1474 24.0977 23.1634 24.0178C23.1634 24.0019 23.1634 23.9859 23.1794 23.9699C23.1794 23.906 23.1953 23.858 23.2113 23.7941C23.2113 23.7782 23.2273 23.7622 23.2273 23.7462C23.2433 23.6823 23.2593 23.6343 23.2752 23.5704C23.2752 23.5544 23.2912 23.5544 23.2912 23.5385C23.3072 23.4746 23.3392 23.4106 23.3551 23.3627C23.3551 23.3627 23.3551 23.3467 23.3711 23.3467C23.4031 23.2828 23.435 23.2189 23.467 23.155C23.5788 22.9632 23.7226 22.7875 23.8824 22.6277L17.3312 24.2415H17.3152L23.8025 25.8234C23.5948 25.6317 23.435 25.392 23.3232 25.1204Z" fill="#676A6A"/>
<path d="M38.0556 23.8898C38.0556 23.8579 38.0715 23.8259 38.0715 23.8099C38.0875 23.714 38.1035 23.6182 38.1354 23.5383C38.1354 23.5223 38.1354 23.5223 38.1354 23.5063L38.9823 19.5915V17.3545C38.2793 16.7793 37.5442 16.4597 36.7613 16.4597C35.7706 16.4597 34.8598 17.003 34.1727 17.6741C33.4217 18.4091 32.8465 19.3359 32.3671 20.2626C32.3512 20.3106 32.3192 20.3425 32.3032 20.3905C32.447 20.5183 32.5908 20.6461 32.7346 20.774C33.0542 21.0616 33.3738 21.3652 33.6774 21.6688C33.8212 21.8126 33.965 21.9564 34.1088 22.1002C34.2526 22.26 34.4124 22.4038 34.5562 22.5636C34.748 22.7713 34.9397 22.963 35.1155 23.1708C35.1954 23.2507 35.2753 23.3465 35.3552 23.4264C35.5789 23.6821 35.8026 23.9218 36.0263 24.1774C36.0582 24.2094 36.0902 24.2413 36.1062 24.2573H38.0396C38.0396 24.2413 38.0396 24.2254 38.0396 24.2094C38.0396 24.1135 38.0396 24.0017 38.0556 23.8898Z" fill="#E2DDDB"/>
<path d="M9.05428 26.7182C9.05428 26.7022 9.07026 26.6862 9.07026 26.6702C9.19809 26.3506 9.32592 26.0311 9.46972 25.7115C9.50168 25.6156 9.54962 25.5357 9.59755 25.4558C9.7094 25.2002 9.83723 24.9605 9.96506 24.7208C10.013 24.6249 10.0609 24.5291 10.1249 24.4172C10.1568 24.3693 10.1888 24.3054 10.2207 24.2574C10.3645 24.0178 10.4924 23.7781 10.6362 23.5384C10.6681 23.4905 10.7161 23.4265 10.748 23.3786C10.9238 23.091 11.1155 22.8194 11.3233 22.5477C11.3392 22.5317 11.3552 22.4998 11.3712 22.4838C11.5789 22.1962 11.8026 21.9245 12.0263 21.6689C12.0743 21.605 12.1222 21.557 12.1701 21.4931C12.3938 21.2375 12.6335 20.9818 12.8732 20.7421C12.9211 20.6942 12.9691 20.6463 13.017 20.5983C13.2727 20.3427 13.5283 20.103 13.8159 19.8633C14.8865 16.2521 18.1941 13.6156 22.0929 13.6156C23.6588 13.6156 25.2247 14.063 26.5669 14.8939C27.9411 15.7408 29.0596 16.9712 29.7786 18.3933C29.7786 18.3933 29.7786 18.4092 29.7946 18.4092C29.8106 18.4412 29.8266 18.4731 29.8585 18.5211C30.4657 18.8886 31.041 19.32 31.6002 19.7834C31.792 19.9432 31.9677 20.103 32.1435 20.2628C32.2074 20.3107 32.2553 20.3746 32.3193 20.4225C32.3352 20.3746 32.3512 20.3427 32.3832 20.2947C32.9264 16.8273 34.4604 14.3187 36.266 14.3187C37.6242 14.3187 38.8386 15.7408 39.5736 17.9299V17.9459C39.7813 18.1696 39.989 18.4252 40.1968 18.6968C40.1968 18.6968 40.1968 18.7128 40.2127 18.7128C40.2287 18.7448 40.2287 18.7767 40.2447 18.8087L40.2127 18.6968C37.9597 12.0497 31.6801 7.2561 24.266 7.2561C14.9664 7.2561 7.44043 14.7821 7.44043 24.0817C7.44043 25.9192 7.72805 27.6769 8.27132 29.3227C8.27132 29.3227 8.27132 29.3227 8.27132 29.3067C8.38317 28.8114 8.511 28.316 8.65481 27.8367C8.78264 27.4532 8.91047 27.0857 9.05428 26.7182Z" fill="#525353"/>
<path d="M40.4684 24.2735L39.8771 24.9286C39.8612 25.0085 39.8292 25.0884 39.7973 25.1683C39.7973 25.1843 39.7813 25.2003 39.7653 25.2322C39.7493 25.2802 39.7174 25.3441 39.6854 25.392C39.6694 25.424 39.6534 25.44 39.6375 25.4719C39.6055 25.5039 39.5895 25.5518 39.5576 25.5838C39.5256 25.6317 39.4777 25.6796 39.4297 25.7116C39.4138 25.7276 39.3978 25.7436 39.3818 25.7595C39.3499 25.7915 39.3179 25.8075 39.2859 25.8235C39.27 25.8235 39.254 25.8394 39.238 25.8394C39.1581 25.8874 39.0622 25.9033 38.9664 25.9033C38.4391 25.9033 38.0076 25.1683 38.0076 24.2416H36.0742C36.4417 24.657 36.7933 25.0725 37.1288 25.5039L37.1448 25.5199C37.4803 25.9353 37.8159 26.3508 38.1514 26.7662C38.1674 26.7822 38.1834 26.8141 38.1994 26.8301C38.519 27.2296 38.8226 27.629 39.1262 28.0285C39.1581 28.0605 39.1901 28.1084 39.222 28.1404C39.5416 28.5718 39.8612 29.0032 40.1807 29.4187C40.1807 29.4187 40.1807 29.4187 40.1807 29.4346C40.74 27.7888 41.0436 26.0472 41.0596 24.2256L40.4684 24.2735Z" fill="white"/>
<path d="M21.7094 16.4918C21.7573 16.4918 21.7893 16.4918 21.8372 16.4758C22.1408 16.4598 22.4444 16.4438 22.748 16.4438C23.6588 16.4438 24.5536 16.5397 25.4164 16.7155C25.4164 16.7155 25.4164 16.7155 25.4164 16.7314C25.4164 16.7314 25.4164 16.7474 25.4164 16.7634C25.4164 16.7794 25.4164 16.7953 25.4164 16.8273C25.4164 16.8433 25.4164 16.8593 25.4164 16.8912C25.4164 16.9232 25.4164 16.9551 25.4164 16.9871C25.4164 17.0031 25.4164 17.035 25.4164 17.051C25.4164 17.083 25.4164 17.1149 25.4164 17.1469V16.7155C26.0236 16.8593 27.1102 17.1629 27.9251 17.4984C28.2606 17.6422 28.5962 17.802 28.9158 17.9618C28.9317 17.9618 28.9637 17.9778 28.9957 18.0097C28.9957 18.0097 29.0116 18.0097 29.0116 18.0257C29.0436 18.0417 29.0755 18.0577 29.1075 18.0896C29.1554 18.1216 29.2034 18.1376 29.2513 18.1695H29.2673C29.475 18.2814 29.6987 18.4252 29.7946 18.4731C29.8106 18.4731 29.8106 18.4891 29.8106 18.4891L29.8265 18.5051C29.8106 18.4731 29.7946 18.4412 29.7626 18.3932C29.7626 18.3932 29.7626 18.3772 29.7467 18.3772C29.0276 16.9392 27.8931 15.7088 26.5349 14.8779C25.1927 14.063 23.6268 13.5996 22.0609 13.5996C18.1621 13.5996 14.8545 16.2361 13.7839 19.8473C14.8066 18.9685 15.9411 18.2334 17.1554 17.6902C18.6095 17.019 20.1594 16.6196 21.7094 16.4918Z" fill="black"/>
<path d="M34.1888 17.6902C34.8759 17.0191 35.7867 16.4758 36.7773 16.4758C37.5603 16.4758 38.3113 16.7954 38.9984 17.3706C39.0623 17.4186 39.1262 17.4825 39.1901 17.5304C39.2221 17.5624 39.27 17.5943 39.302 17.6263C39.3978 17.7222 39.4937 17.818 39.5896 17.9299V17.9139C38.8386 15.7248 37.6402 14.3027 36.282 14.3027C34.4764 14.3027 32.9424 16.7954 32.3992 20.2788C32.8466 19.352 33.4378 18.4252 34.1888 17.6902Z" fill="black"/>
<path d="M18.2421 39.7887C18.4019 39.8526 18.5457 39.9005 18.7055 39.9485C20.4471 40.5557 22.3166 40.8912 24.266 40.8912C26.4871 40.8912 28.6123 40.4598 30.5457 39.6768C30.6415 39.6289 30.7534 39.597 30.8493 39.549C31.0091 39.4851 31.1848 39.4052 31.3446 39.3253C31.4884 39.2614 31.6322 39.1975 31.776 39.1176C31.7441 39.1176 31.7121 39.1336 31.6802 39.1336C31.073 39.1975 30.4818 39.2135 29.8906 39.1176C26.4232 38.6223 25.6562 36.9445 25.768 35.2188C25.5124 35.075 25.2727 34.9152 25.0011 34.7235C22.3326 32.79 20.7507 30.7288 20.7507 30.7288C20.7507 30.7288 22.812 32.3107 25.8799 33.5091C25.9438 33.541 26.0077 33.557 26.0716 33.589C26.2155 33.0936 26.3912 32.6143 26.535 32.1988C26.551 32.1509 26.567 32.1029 26.583 32.055C26.7587 31.5757 26.9505 31.0963 27.1582 30.6329C27.9252 28.8753 28.8679 27.1655 29.3313 25.296L29.555 24.2414H27.6695V24.2574C27.6695 24.577 27.6056 24.8646 27.4937 25.1362C27.4298 25.2641 27.3659 25.4079 27.286 25.5197C27.1262 25.7594 26.9185 25.9671 26.6788 26.1269C26.551 26.2068 26.4232 26.2707 26.2953 26.3346C26.0237 26.4465 25.7201 26.5104 25.4165 26.5104C25.3366 26.5104 25.2567 26.5104 25.1768 26.4944C25.1609 26.4944 25.1449 26.4944 25.1289 26.4784C25.065 26.4784 25.017 26.4625 24.9531 26.4465C24.9372 26.4465 24.9212 26.4305 24.9052 26.4305C24.8413 26.4145 24.7933 26.3986 24.7294 26.3826C24.7135 26.3826 24.7135 26.3826 24.6975 26.3666C24.6336 26.3506 24.5696 26.3187 24.5217 26.3027H24.5057C24.4418 26.2707 24.3779 26.2388 24.314 26.2068C24.1222 26.095 23.9465 25.9671 23.7867 25.7914L17.2993 24.2095H10.2208C10.1888 24.2574 10.1569 24.3213 10.1249 24.3693C10.077 24.4651 10.0131 24.561 9.96512 24.6729C9.83729 24.9125 9.70946 25.1682 9.59761 25.4079C9.54967 25.4878 9.51771 25.5836 9.46978 25.6635C9.32597 25.9831 9.19814 26.3027 9.07031 26.6223C9.07031 26.6382 9.05433 26.6542 9.05433 26.6702C8.91052 27.0377 8.78269 27.4212 8.67084 27.8047C8.52703 28.284 8.3992 28.7794 8.28735 29.2747C9.40586 32.6782 11.563 35.6023 14.4072 37.6476C14.4871 37.7115 14.583 37.7594 14.6629 37.8233C15.1422 38.1589 15.6376 38.4784 16.1489 38.7501C16.82 39.1655 17.523 39.5011 18.2421 39.7887Z" fill="white"/>
<path d="M29.8585 34.5478C29.8265 34.7236 29.8106 34.8993 29.8106 35.0751C29.7946 35.3787 29.8265 35.6823 29.8745 35.9539C29.9064 36.1457 29.9384 36.3214 29.9863 36.4972C30.0662 36.7529 30.1461 36.9925 30.258 37.2162C30.3698 37.4399 30.4817 37.6477 30.5935 37.8234C30.6255 37.8874 30.6734 37.9513 30.7054 37.9992C30.7693 38.0791 30.8172 38.159 30.8811 38.2389C30.961 38.3348 31.0409 38.4306 31.1048 38.5105C31.4084 38.8621 31.6641 39.0538 31.6641 39.0538C31.6641 39.0538 31.6641 39.0538 31.6641 39.0698C31.6641 39.0858 31.6641 39.1017 31.6801 39.1177C31.712 39.1177 31.744 39.1017 31.7759 39.1017C32.5269 39.0059 33.2779 38.7981 34.0289 38.5425C34.4124 38.3987 34.7959 38.2549 35.1634 38.0951C35.2753 38.0471 35.3871 37.9832 35.499 37.9353C39.3498 36.0658 42.5775 32.7742 42.5775 32.7742C37.752 35.155 33.0063 35.0591 29.8585 34.5478Z" fill="#9F2255"/>
<path d="M39.1581 28.0603C38.8545 27.6608 38.535 27.2614 38.2314 26.8619C38.2154 26.8459 38.1994 26.814 38.1834 26.798C37.8479 26.3825 37.5123 25.9671 37.1768 25.5516L37.1608 25.5357C36.8093 25.1042 36.4577 24.6888 36.1062 24.2733C36.0902 24.2414 36.0583 24.2254 36.0423 24.1934C35.8186 23.9378 35.5949 23.6981 35.3712 23.4424C35.2913 23.3626 35.2114 23.2667 35.1315 23.1868C34.9398 22.9791 34.764 22.7873 34.5722 22.5796C34.4284 22.4198 34.2687 22.276 34.1248 22.1162C33.981 21.9724 33.8372 21.8286 33.6934 21.6848C33.3898 21.3812 33.0703 21.0776 32.7507 20.79C32.6069 20.6622 32.4631 20.5343 32.3193 20.4065C32.6228 21.2853 32.9744 22.1642 33.1501 23.0749C33.1981 23.3146 33.23 23.5383 33.262 23.762C33.6934 26.9098 32.6708 28.9711 31.0729 31.6875C30.9611 31.8792 30.8332 32.0869 30.7214 32.2787C30.3539 32.8859 30.1142 33.4771 29.9864 34.0203C29.9384 34.1961 29.9065 34.3719 29.8745 34.5476C33.0223 35.059 37.752 35.1548 42.5936 32.774C42.5936 32.774 41.6508 31.3839 40.2127 29.4664C39.8932 29.035 39.5736 28.6036 39.254 28.1881C39.222 28.1402 39.1901 28.0922 39.1581 28.0603Z" fill="#E2066F"/>
<path d="M31.6642 39.0856C31.6642 39.0856 31.4245 38.8939 31.1049 38.5424C31.025 38.4625 30.9611 38.3666 30.8812 38.2707C30.8173 38.1908 30.7694 38.1109 30.7055 38.031C30.6735 37.9671 30.6256 37.9192 30.5936 37.8553C30.4818 37.6635 30.3699 37.4718 30.2581 37.2481C30.1622 37.0244 30.0663 36.7847 29.9864 36.529C29.9385 36.3533 29.8905 36.1775 29.8746 35.9858C29.8266 35.7141 29.8107 35.4105 29.8107 35.1069C29.8107 34.9312 29.8266 34.7554 29.8586 34.5796C29.8905 34.4039 29.9225 34.2281 29.9704 34.0523C30.1142 33.5091 30.3379 32.9338 30.7055 32.3107C30.8173 32.1029 30.9451 31.9112 31.057 31.7195C32.6549 29.0031 33.6775 26.9578 33.2461 23.794C33.2141 23.5703 33.1822 23.3306 33.1342 23.1069C33.1182 23.2667 33.0863 23.4105 33.0543 23.5224C33.0543 23.5384 33.0543 23.5384 33.0543 23.5543C33.0383 23.6342 33.0224 23.6981 33.0064 23.7461C32.3033 25.8073 31.1529 27.4212 29.571 29.1309C29.3632 29.3706 29.1395 29.5943 28.8999 29.834C28.5164 30.2334 28.1009 30.6489 27.6855 31.0643C27.5097 31.2401 27.334 31.3999 27.1582 31.5756C26.9984 31.7354 26.7747 31.9591 26.535 32.2148C26.3912 32.6302 26.2154 33.1096 26.0716 33.6049C26.0077 33.573 25.9438 33.557 25.8799 33.525C22.812 32.3426 20.7507 30.7448 20.7507 30.7448C20.7507 30.7448 22.3326 32.806 25.0011 34.7394C25.2567 34.9312 25.5124 35.091 25.768 35.2348C25.6562 36.9764 26.4232 38.6382 29.8905 39.1336C30.4818 39.2135 31.073 39.2135 31.6802 39.1495C31.6802 39.1176 31.6642 39.1016 31.6642 39.0856Z" fill="black"/>
</g>
<defs>
<clipPath id="clip0_1_1468">
<rect width="48" height="48" fill="white" transform="translate(0.25 0.0498047)"/>
</clipPath>
</defs>
</svg>
