<svg width="25" height="29" viewBox="0 0 25 29" fill="none" xmlns="http://www.w3.org/2000/svg">
<g id="Clip path group">
<mask id="mask0_28_1426" style="mask-type:luminance" maskUnits="userSpaceOnUse" x="0" y="0" width="25" height="29">
<g id="a">
<path id="Vector" d="M24.6602 28.1118H0.660156V0.683243H24.6602V28.1118Z" fill="white"/>
</g>
</mask>
<g mask="url(#mask0_28_1426)">
<g id="Group">
<path id="Vector_2" d="M12.6602 28.1117C9.2673 28.076 6.44587 27.6653 4.19587 26.8796C1.91016 26.0581 0.731585 25.0402 0.660156 23.826V4.96882C0.731585 3.75453 1.91016 2.73667 4.19587 1.91525C6.44587 1.12953 9.2673 0.71882 12.6602 0.683105C16.053 0.71882 18.8744 1.12953 21.1244 1.91525C23.4102 2.73667 24.5887 3.75453 24.6602 4.96882V23.826C24.5887 25.0402 23.4102 26.0581 21.1244 26.8796C18.8744 27.6653 16.053 28.076 12.6602 28.1117ZM22.9459 4.96882C22.9459 4.9331 22.8387 4.8081 22.6244 4.59382C22.2316 4.27239 21.553 3.9331 20.5887 3.57596C18.553 2.82596 15.9102 2.4331 12.6602 2.39739C9.41016 2.4331 6.7673 2.82596 4.73159 3.57596C3.7673 3.9331 3.08873 4.27239 2.69587 4.59382C2.48158 4.8081 2.37444 4.9331 2.37444 4.96882V10.4331C3.16016 11.0045 4.3923 11.5045 6.07087 11.9331C7.92804 12.4331 10.1244 12.6831 12.6602 12.6831C15.1602 12.6831 17.3566 12.4331 19.2494 11.9331C20.928 11.5402 22.1602 11.0402 22.9459 10.4331V4.96882ZM22.9459 12.4688C22.0173 12.9331 20.928 13.326 19.678 13.6474C17.6066 14.1474 15.2673 14.3974 12.6602 14.3974C10.053 14.3974 7.71376 14.1474 5.6423 13.6474C4.3923 13.326 3.30301 12.9331 2.37444 12.4688V17.2902C3.16016 17.8974 4.3923 18.3974 6.07087 18.7902C7.92804 19.2902 10.1244 19.5402 12.6602 19.5402C15.1602 19.5402 17.3566 19.2902 19.2494 18.7902C20.928 18.3974 22.1602 17.8974 22.9459 17.2902V12.4688ZM2.69587 24.201C3.08873 24.5224 3.7673 24.8617 4.73159 25.2188C6.7673 25.9688 9.41016 26.3617 12.6602 26.3974C15.9102 26.3617 18.553 25.9688 20.5887 25.2188C21.553 24.8617 22.2316 24.5224 22.6244 24.201C22.8387 23.9867 22.9459 23.8617 22.9459 23.826V19.326C22.0173 19.7902 20.928 20.1831 19.678 20.5045C17.6066 21.0045 15.2673 21.2545 12.6602 21.2545C10.053 21.2545 7.71376 21.0045 5.6423 20.5045C4.3923 20.1831 3.30301 19.7902 2.37444 19.326V23.826C2.37444 23.8617 2.48158 23.9867 2.69587 24.201Z" fill="#FD6B2A"/>
</g>
</g>
</g>
</svg>
