<svg width="40" height="41" viewBox="0 0 40 41" fill="none" xmlns="http://www.w3.org/2000/svg">
<g id="Clip path group">
<mask id="mask0_28_79" style="mask-type:luminance" maskUnits="userSpaceOnUse" x="0" y="0" width="40" height="41">
<g id="a">
<path id="Vector" d="M39.5177 0.97998H0.333984V40.1637H39.5177V0.97998Z" fill="white"/>
</g>
</mask>
<g mask="url(#mask0_28_79)">
<g id="Group">
<path id="Vector_2" d="M19.9259 0.97998C9.12664 0.97998 0.333984 9.76471 0.333984 20.5718C0.333984 31.3711 9.12656 40.1637 19.9259 40.1637C30.7251 40.1637 39.5177 31.3711 39.5177 20.5718C39.5177 9.76471 30.7251 0.97998 19.9259 0.97998Z" fill="#00769D"/>
<path id="Vector_3" d="M2.45117 20.7749C2.45117 18.2512 3.00342 15.8523 3.99588 13.688L12.5118 36.4569C6.55705 33.6283 2.45117 27.6665 2.45117 20.7749Z" fill="#F0F6FA"/>
<path id="Vector_4" d="M20.0302 38.0455C18.3372 38.0455 16.7062 37.7958 15.1602 37.3353L20.3316 22.1602L25.6267 36.82C25.6654 36.906 25.704 36.984 25.7504 37.0621C23.9648 37.6944 22.0398 38.0455 20.0302 38.0455Z" fill="#F0F6FA"/>
<path id="Vector_5" d="M22.1528 12.5102C23.2057 12.4546 24.1568 12.3433 24.1568 12.3433C25.0998 12.2321 24.9897 10.8262 24.0466 10.8819C24.0466 10.8819 21.2097 11.1043 19.3787 11.1043C17.6577 11.1043 14.7657 10.8819 14.7657 10.8819C13.8228 10.8263 13.7127 12.2878 14.6557 12.3433C14.6557 12.3433 15.5517 12.4546 16.4947 12.5102L19.2215 20.0715L15.3866 31.6916L9.00525 12.5102C10.0584 12.4546 11.0092 12.3433 11.0092 12.3433C11.9523 12.2321 11.8422 10.8262 10.8992 10.8819C10.8992 10.8819 8.06225 11.1043 6.23118 11.1043C5.90113 11.1043 5.51609 11.0964 5.09961 11.0805C8.23519 6.27498 13.6182 3.09814 19.7402 3.09814C24.2981 3.09814 28.4552 4.86127 31.575 7.74452C31.4965 7.73656 31.4257 7.72859 31.3472 7.72859C29.6262 7.72859 28.4082 9.24574 28.4082 10.8739C28.4082 12.3353 29.2412 13.5663 30.1292 15.0279C30.7971 16.2035 31.575 17.7204 31.575 19.9127C31.575 21.4297 31.0014 23.1849 30.2392 25.6392L28.4946 31.5407L22.1528 12.5102Z" fill="#F0F6FA"/>
<path id="Vector_6" d="M28.3984 35.9275L33.926 20.2728C34.9571 17.7447 35.3062 15.7252 35.3062 13.9203C35.3062 13.2684 35.2655 12.6642 35.1844 12.0996C36.5966 14.6279 37.4001 17.522 37.4001 20.6068C37.4001 27.1502 33.7801 32.8585 28.3984 35.9275Z" fill="#F0F6FA"/>
</g>
</g>
</g>
</svg>
