<svg width="25" height="24" viewBox="0 0 25 24" fill="none" xmlns="http://www.w3.org/2000/svg">
<g id="Clip path group">
<mask id="mask0_28_1418" style="mask-type:luminance" maskUnits="userSpaceOnUse" x="0" y="0" width="25" height="24">
<g id="a">
<path id="Vector" d="M24.3129 23.6445H0.802734V0.134327H24.3129V23.6445Z" fill="white"/>
</g>
</mask>
<g mask="url(#mask0_28_1418)">
<g id="Group">
<path id="Vector_2" d="M12.5579 22.1751C14.4864 22.1445 16.216 21.67 17.7466 20.7516C19.3078 19.8639 20.5323 18.6394 21.4201 17.0782C22.3384 15.5476 22.813 13.8179 22.8436 11.8894C22.8742 11.4302 23.1191 11.1853 23.5783 11.1547C24.0374 11.1853 24.2823 11.4302 24.313 11.8894C24.2823 14.0935 23.7466 16.068 22.7058 17.8129C21.665 19.5884 20.2568 20.9965 18.4813 22.0374C16.7364 23.0782 14.7619 23.6139 12.5579 23.6445C10.3538 23.6139 8.37925 23.0782 6.63436 22.0374C4.85886 20.9965 3.45069 19.5884 2.40988 17.8129C1.36906 16.068 0.833346 14.0935 0.802734 11.8894C0.833346 9.6853 1.36906 7.71083 2.40988 5.96593C3.45069 4.1904 4.85886 2.78223 6.63436 1.74142C8.37925 0.700602 10.3538 0.16489 12.5579 0.134277C15.5885 0.195502 18.1752 1.17509 20.318 3.07305L22.3384 1.09856C22.6752 0.792438 23.0119 0.792438 23.3486 1.09856C23.6548 1.4353 23.6548 1.77203 23.3486 2.10876L13.0629 12.3945C12.7262 12.7006 12.3895 12.7006 12.0527 12.3945C11.7466 12.0578 11.7466 11.721 12.0527 11.3843L14.0731 9.36389C13.5833 9.08838 13.0783 8.9506 12.5579 8.9506C11.7313 8.98121 11.0425 9.27205 10.4915 9.82308C9.94048 10.3741 9.64969 11.0628 9.61907 11.8894C9.64969 12.7159 9.94048 13.4047 10.4915 13.9557C11.0425 14.5067 11.7313 14.7975 12.5579 14.8282C13.3844 14.7975 14.0731 14.5067 14.6242 13.9557C15.1752 13.4047 15.466 12.7159 15.4966 11.8894C15.5272 11.4302 15.7721 11.1853 16.2313 11.1547C16.6905 11.1853 16.9354 11.4302 16.966 11.8894C16.9354 13.1445 16.5068 14.1853 15.6803 15.0118C14.8538 15.8384 13.813 16.2669 12.5579 16.2975C11.3027 16.2669 10.2619 15.8384 9.4354 15.0118C8.60887 14.1853 8.1803 13.1445 8.14969 11.8894C8.1803 10.6343 8.60887 9.59346 9.4354 8.76693C10.2619 7.9404 11.3027 7.51183 12.5579 7.48121C13.5374 7.51183 14.3946 7.78734 15.1293 8.30774L16.6905 6.74652C15.5272 5.79754 14.1497 5.30774 12.5579 5.27713C11.1803 5.30774 9.95581 5.67509 8.88438 6.37917C7.81295 7.11387 7.0017 8.06285 6.45068 9.22611C6.26701 9.62407 5.96089 9.76185 5.53232 9.6394C5.13437 9.42512 5.01192 9.10366 5.16498 8.67509C5.80783 7.2057 6.77214 6.04244 8.05785 5.1853C9.37418 4.29754 10.8742 3.83836 12.5579 3.80774C14.5783 3.83836 16.3078 4.46591 17.7466 5.69042L19.3078 4.12917C17.4405 2.50672 15.1905 1.66489 12.5579 1.60366C10.6293 1.63428 8.89966 2.10876 7.36905 3.02713C5.80783 3.91489 4.58335 5.1394 3.69559 6.70063C2.77722 8.23124 2.30273 9.96081 2.27212 11.8894C2.30273 13.8179 2.77722 15.5476 3.69559 17.0782C4.58335 18.6394 5.80783 19.8639 7.36905 20.7516C8.89966 21.67 10.6293 22.1445 12.5579 22.1751ZM19.9048 11.1547C20.364 11.1853 20.6089 11.4302 20.6395 11.8894C20.6089 13.5731 20.1497 15.0731 19.2619 16.3894C18.4048 17.6751 17.2415 18.6394 15.7721 19.2823C15.3436 19.4353 15.0221 19.3129 14.8078 18.9149C14.6854 18.4863 14.8232 18.1649 15.2211 17.9506C16.3844 17.4302 17.3334 16.6343 18.0681 15.5628C18.7721 14.4914 19.1395 13.2669 19.1701 11.8894C19.2007 11.4302 19.4456 11.1853 19.9048 11.1547ZM5.53232 14.1394C5.96089 14.017 6.26701 14.1547 6.45068 14.5526C7.18538 16.1139 8.33336 17.2465 9.89459 17.9506C10.2925 18.1649 10.4303 18.4863 10.3078 18.9149C10.0935 19.3129 9.77214 19.4353 9.34356 19.2823C7.38438 18.4251 5.9915 17.0322 5.16498 15.1037C5.01192 14.6751 5.13437 14.3537 5.53232 14.1394ZM6.31295 11.8894C6.25173 12.5628 5.88438 12.9302 5.2109 12.9914C4.53743 12.9302 4.17008 12.5628 4.10886 11.8894C4.17008 11.2159 4.53743 10.8486 5.2109 10.7873C5.88438 10.8486 6.25173 11.2159 6.31295 11.8894ZM11.4558 19.2363C11.517 18.5628 11.8844 18.1955 12.5579 18.1343C13.2313 18.1955 13.5987 18.5628 13.6599 19.2363C13.5987 19.9098 13.2313 20.2771 12.5579 20.3384C11.8844 20.2771 11.517 19.9098 11.4558 19.2363Z" fill="#FD6B2A"/>
</g>
</g>
</g>
</svg>
