<svg width="75" height="75" viewBox="0 0 75 75" fill="none" xmlns="http://www.w3.org/2000/svg">
<g clip-path="url(#clip0_593_3758)">
<path fill-rule="evenodd" clip-rule="evenodd" d="M43.9639 18.0948C44.1159 18.2361 44.2593 18.3827 44.4059 18.5277C45.3859 19.5382 46.3089 20.6357 47.1593 21.824C47.1605 21.8252 47.1622 21.8277 47.1634 21.829C47.9922 23.0198 48.7534 24.3023 49.4872 25.684C49.6301 21.0102 48.7276 16.9015 46.6326 13.0728C45.6709 11.3115 44.6989 9.50526 43.0676 8.28317C40.7284 6.52817 38.0822 5.33443 35.2493 4.58234C33.9839 4.24734 32.7051 4.00568 31.368 3.86568C21.6143 2.52693 11.7822 7.39192 6.54056 17.1157C7.12806 17.2711 7.37847 16.7686 7.71472 16.4957C18.746 7.52359 33.9839 8.43901 43.7751 17.9077C43.8393 17.969 43.898 18.0332 43.9639 18.0948ZM32.9389 52.1527C31.1397 51.1073 29.503 49.8427 27.8189 48.4498C29.5214 53.3215 36.0605 59.176 41.6343 60.6985C41.4068 60.5127 41.1951 60.3019 40.9493 60.1444C38.1101 58.3165 35.7785 55.9635 33.793 53.2498C33.5172 52.874 33.311 52.3686 32.9389 52.1527ZM73.7288 29.9944C73.7738 29.7944 73.7847 29.6127 73.5159 29.5702C73.5034 29.7132 73.4876 29.8573 73.4751 29.9998C73.4463 30.3407 73.418 30.6807 73.3884 31.0211C71.8734 47.8998 55.8059 59.1586 39.4297 54.8144C38.8884 54.6702 38.3489 54.5136 37.8093 54.3636C41.4064 58.4056 45.8355 60.8335 51.0726 61.821C52.8305 62.154 54.5343 62.1044 56.2659 61.6315C62.7472 59.8615 67.8459 56.1686 71.3026 50.4373C75.1618 44.0377 76.0513 37.179 73.7288 29.9944ZM45.2147 64.1581C36.3997 62.5506 30.0414 57.444 25.6855 49.6669C25.4697 54.6281 26.6768 59.1669 29.3118 63.3131C30.1105 64.5706 30.8651 65.914 32.1468 66.7477C40.5176 72.1977 49.2301 72.7544 58.1443 68.2602C62.8043 65.9127 66.2384 62.236 68.533 57.5123C61.7643 63.2985 54.0205 65.7631 45.2147 64.1581ZM30.518 1.56776C48.4272 3.15651 59.5509 19.4457 54.5509 36.7581C54.493 36.9577 54.3576 37.1561 54.6959 37.2848C58.7855 33.2752 61.3259 28.4773 62.0639 22.7523C62.1905 21.764 62.1613 20.8019 61.9372 19.8298C60.1863 12.219 55.8768 6.49984 48.9922 2.88109C42.9859 -0.274737 36.6447 -0.866403 30.1247 1.24651C29.921 1.21026 29.7289 1.19526 29.6955 1.47735C29.8435 1.49068 29.991 1.50526 30.138 1.5186C30.2643 1.5361 30.391 1.55693 30.518 1.56776ZM52.2968 36.6477C52.2955 36.6073 52.2926 36.5686 52.2909 36.5294C52.2893 36.5115 52.2864 36.4948 52.2855 36.4777C52.2776 36.494 52.2714 36.5111 52.2643 36.5269C52.2751 36.5681 52.2864 36.6069 52.2968 36.6477ZM64.2213 29.8882C62.6134 38.6956 57.4918 45.039 49.3859 49.4294C54.3139 49.5469 58.5822 48.5486 62.5193 46.2577C64.1059 45.3344 65.7609 44.4356 66.8376 42.8952C75.4984 30.5248 71.0763 13.1678 57.4951 6.46401C63.3559 13.2407 65.8405 21.029 64.2213 29.8882ZM60.8038 33.6261C60.5843 33.679 60.4193 33.7952 60.3176 33.9527C58.3197 37.0469 55.7847 39.6069 52.7147 41.6406C52.5064 41.779 52.2884 41.9561 52.1718 42.1681C51.1872 43.9719 49.8864 45.5506 48.6676 47.1948C54.5014 44.269 58.5547 39.7573 60.8038 33.6261ZM51.1239 17.7094C50.7593 18.0169 50.9968 18.2686 51.0501 18.4827C51.7855 21.4177 52.0976 24.4311 51.5284 27.3698C50.9155 30.5382 52.0339 33.4469 52.2855 36.4777C53.0576 34.7619 53.3122 32.9236 53.4984 31.0823C53.968 26.4186 53.1364 21.9811 51.1239 17.7094ZM45.3884 51.154C45.048 51.0873 44.7209 51.089 44.3789 51.1819C42.5651 51.6727 40.7039 51.8965 38.8401 52.0994C38.728 52.0465 38.6001 52.0056 38.5718 52.1669C38.5639 52.2081 38.7351 52.2811 38.8243 52.3398C45.0501 54.349 51.1051 53.804 57.1168 51.1852C56.9509 51.0723 56.8864 50.9931 56.8168 50.9869C56.6914 50.9736 56.5605 50.9919 56.4372 51.0198C52.7634 51.8665 49.0797 51.8898 45.3884 51.154ZM27.7322 48.4823C27.6951 48.4615 27.6597 48.4415 27.6235 48.4202C27.653 48.4477 27.6822 48.4731 27.711 48.5006L27.7322 48.4823ZM26.2122 27.9794C26.3293 27.9373 26.4493 27.8748 26.3551 27.7407C26.3318 27.7065 26.1589 27.7765 26.0543 27.7982C26.101 27.8632 26.1539 27.924 26.2122 27.9794ZM17.1739 68.2794C17.2826 68.4527 17.4043 68.589 17.623 68.4294C17.5318 68.3185 17.4405 68.2069 17.3489 68.096C17.2851 68.1519 17.2268 68.2127 17.1739 68.2794ZM33.2818 14.094C36.3034 16.0019 38.9855 18.3182 40.9276 21.3036C42.0134 22.9723 43.2072 23.1619 44.993 22.5532C41.8564 18.5132 38.0597 15.6202 33.2818 14.094ZM26.0543 27.7982C20.2314 30.7794 16.3351 35.4465 13.936 41.5486C14.1335 41.5119 14.2335 41.5223 14.2885 41.4761C14.3856 41.3977 14.4656 41.2919 14.5331 41.1852C16.5318 37.9886 19.1201 35.3677 22.2514 33.2773C22.5397 33.084 22.7689 32.8519 22.9451 32.5444C23.8805 30.9148 25.0385 29.4398 26.2122 27.9794C26.1539 27.924 26.101 27.8632 26.0543 27.7982ZM23.7455 56.5723C23.863 56.3798 23.8972 56.1806 23.858 55.9977C23.083 52.3965 23.0651 48.7944 23.7972 45.1861C23.8464 44.9406 23.8768 44.6611 23.8085 44.4277C23.2293 42.4573 23.033 40.4206 22.7326 38.3961C20.6743 44.5902 20.9997 50.6461 23.7455 56.5723ZM19.0326 23.7815C22.3326 23.0669 25.6455 23.0827 28.9685 23.5961C29.4289 23.6673 29.9318 23.8786 30.3476 23.7686C32.3589 23.2348 34.4105 22.9723 36.5864 22.7665C31.9385 20.5248 23.1743 21.0094 18.1568 23.8752C18.4489 23.8452 18.748 23.8448 19.0326 23.7815ZM17.3489 68.096C17.1289 67.8352 16.9072 67.5752 16.6881 67.3127C5.82389 54.3069 9.22472 34.9836 23.8764 26.4757C24.3605 26.1944 24.853 25.924 25.3418 25.6494C19.9385 25.3344 15.0897 26.7494 10.6889 29.754C9.21097 30.7623 8.04097 32.0027 7.15097 33.5602C3.82014 39.3948 2.82473 45.6115 4.43348 52.109C6.22972 59.3627 10.451 64.841 17.1739 68.2794C17.2268 68.2127 17.2851 68.1519 17.3489 68.096ZM23.9714 61.6327C18.881 54.266 18.0164 46.1594 20.6439 37.3232C17.0772 40.7252 14.7647 44.449 13.6006 48.8531C13.131 50.6273 12.5968 52.4327 12.9239 54.284C15.5468 69.1552 30.9472 78.3031 45.2905 73.4381C36.3551 72.7915 29.091 69.0415 23.9714 61.6327ZM1.38931 45.1477C-0.328603 40.1844 -0.499436 35.1565 1.13515 30.2015C4.26098 20.7211 10.8151 14.9532 20.5876 12.8878C22.083 12.5715 23.5672 12.9882 25.021 13.3119C29.8151 14.3807 33.8789 16.7365 37.2351 20.3965C28.656 17.9782 20.5485 18.8627 13.1797 23.9594C5.81723 29.0511 2.08431 36.2694 1.38931 45.1477Z" fill="#014073"/>
</g>
<defs>
<clipPath id="clip0_593_3758">
<rect width="75" height="75" fill="white"/>
</clipPath>
</defs>
</svg>
