<svg width="50" height="50" viewBox="0 0 50 50" fill="none" xmlns="http://www.w3.org/2000/svg">
<path d="M27.8747 34.7114C27.8747 34.1818 27.8242 33.6669 27.7489 33.1581L31.4912 30.9966L27.611 24.2779L23.7209 26.4378C22.9159 25.7933 21.978 25.2702 20.8791 24.8829V21.4285H12.6373V24.8829C12.0879 25.2554 11.2198 25.7559 10.4362 26.3647L6.91702 24.162L3.06152 30.8373L6.82691 33.0384C6.74174 33.5829 6.70658 34.1417 6.70658 34.7114C6.70658 35.2417 6.76867 35.7581 6.84339 36.2669L3.10878 38.4279L6.99174 45.1433L10.3401 42.9845C11.1472 43.6274 12.0879 44.1515 12.6373 44.5395V48.901H20.8791V44.5395C21.978 44.1691 22.8423 43.6675 23.6242 43.0565L27.4154 45.2576L31.4093 38.584L27.7104 36.384C27.7961 35.8384 27.8747 35.2818 27.8747 34.7114ZM17.3044 39.4235C14.7011 39.4235 12.5879 37.3147 12.5879 34.7114C12.5879 32.1092 14.7011 29.9982 17.3044 29.9982C19.906 29.9982 22.0176 32.1092 22.0176 34.7114C22.0176 37.3147 19.906 39.4235 17.3044 39.4235Z" fill="#E6F8FF"/>
<path d="M21.0971 49.7251H12.8553C12.0966 49.7251 11.4817 49.1103 11.4817 48.3515V45.2971C11.44 45.2724 11.3977 45.2471 11.3548 45.2213C11.0641 45.0488 10.7334 44.8521 10.3998 44.6345L7.72018 46.3076C7.40424 46.5054 7.02128 46.5653 6.66029 46.4757C6.2993 46.3856 5.98941 46.1526 5.80314 45.8301L1.92128 39.1147C1.54161 38.4581 1.76633 37.618 2.42238 37.2383L5.37622 35.5306C5.35424 35.2697 5.33996 34.9938 5.33996 34.7114C5.33996 34.3955 5.3515 34.0812 5.37457 33.7708L2.3938 32.0219C1.74106 31.6394 1.52073 30.8004 1.9015 30.1466L5.78391 23.4719C5.97018 23.1515 6.27787 22.9202 6.63721 22.8301C6.99765 22.74 7.37732 22.7988 7.69216 22.9933L10.4966 24.7219C10.8207 24.512 11.1389 24.3224 11.4202 24.1554C11.4411 24.1433 11.4614 24.1306 11.4817 24.1191V20.879C11.4817 20.1202 12.0966 19.5054 12.8553 19.5054H21.0971C21.8559 19.5054 22.4707 20.1202 22.4707 20.879V23.9609C22.9696 24.1938 23.4471 24.4686 23.9284 24.7993L26.929 23.085C27.5867 22.7098 28.4224 22.9361 28.7999 23.5911L32.6801 30.3098C33.0592 30.9664 32.8345 31.807 32.1773 32.1861L29.2152 33.8966C29.2372 34.1779 29.2482 34.4482 29.2482 34.7109C29.2482 35.0169 29.2334 35.3268 29.2009 35.6625L32.1361 37.4015C32.4498 37.5872 32.6768 37.8905 32.7669 38.2433C32.857 38.5971 32.8026 38.9713 32.6169 39.285L28.6504 45.9587C28.2636 46.6092 27.424 46.8235 26.7724 46.4405L23.8163 44.6993C23.4185 44.9702 22.979 45.2328 22.4707 45.468V48.3515C22.4707 49.1103 21.8559 49.7251 21.0971 49.7251ZM14.229 46.9779H19.7235V44.5394C19.7235 43.9499 20.0998 43.4262 20.6586 43.2378C21.5542 42.9361 22.1751 42.5306 22.8867 41.9741C23.3328 41.6257 23.9449 41.5867 24.4301 41.8724L26.9878 43.379L29.5526 39.0642L27.0229 37.5647C26.5383 37.2784 26.2784 36.7246 26.3663 36.1686C26.4597 35.579 26.5015 35.129 26.5015 34.7109C26.5015 34.2988 26.4663 33.8697 26.3905 33.3598C26.3075 32.8015 26.574 32.2499 27.0625 31.968L29.6152 30.4938L27.1059 26.1488L24.5125 27.6301C24.0224 27.9098 23.413 27.8614 22.9729 27.5098C22.174 26.8702 21.4762 26.4719 20.6416 26.1773C20.0922 25.9834 19.7246 25.4647 19.7246 24.8823V22.2526H14.2301V24.8828C14.2301 25.3383 14.0042 25.7642 13.6268 26.0197C13.4097 26.1669 13.1328 26.3328 12.8257 26.5153C12.3553 26.7955 11.8224 27.1125 11.3889 27.4493C10.9361 27.8004 10.3119 27.8339 9.82512 27.5334L7.45095 26.0702L4.96523 30.3444L7.53666 31.8526C8.02402 32.1383 8.28611 32.6922 8.19875 33.2499C8.12512 33.7186 8.08831 34.2098 8.08831 34.7103C8.08831 35.19 8.1482 35.6647 8.20754 36.0669C8.28886 36.6235 8.02292 37.1735 7.53611 37.4548L4.98776 38.9284L7.47183 43.2241L9.72348 41.818C10.2174 41.5087 10.8515 41.546 11.3075 41.9087C11.735 42.2499 12.2801 42.5735 12.7603 42.8587C13.0883 43.0532 13.3971 43.2372 13.6487 43.4153C14.0136 43.6724 14.2312 44.0911 14.2312 44.5378V46.9779H14.229ZM17.3042 40.7971C13.9466 40.7971 11.2141 38.0669 11.2141 34.7114C11.2141 31.3554 13.9466 28.6246 17.3042 28.6246C20.6603 28.6246 23.3911 31.3554 23.3911 34.7114C23.3911 38.0669 20.6608 40.7971 17.3042 40.7971ZM17.3042 31.3719C15.4614 31.3719 13.9614 32.8702 13.9614 34.7114C13.9614 36.5526 15.4608 38.0499 17.3042 38.0499C19.146 38.0499 20.6438 36.5521 20.6438 34.7114C20.6438 32.8697 19.146 31.3719 17.3042 31.3719Z" fill="#014073"/>
<path d="M43.3427 12.5719C43.3427 12.1686 43.3032 11.7785 43.2455 11.3912L46.0872 9.75105L43.1416 4.6483L40.1284 6.28567C39.5153 5.79885 38.4614 5.4005 37.912 5.10709V2.19775H32.4175V5.10709C31.3186 5.38841 31.0158 5.76808 30.4213 6.23237L27.5834 4.56039L24.5729 9.62797L27.3911 11.2994C27.3284 11.717 27.2806 12.139 27.2806 12.5719C27.2806 12.9747 27.3186 13.3664 27.379 13.751L24.5317 15.3928L27.4773 20.4978L30.3455 18.8576C30.9636 19.3461 31.3186 19.7445 32.4175 20.0362V24.1758H37.912V20.0362C38.4614 19.7538 39.4636 19.3758 40.0526 18.9109L42.9647 20.5835L46.0109 15.5137L43.2076 13.8417C43.2784 13.4258 43.3427 13.006 43.3427 12.5719ZM35.3114 16.1549C33.3356 16.1549 31.7284 14.5483 31.7284 12.5719C31.7284 10.5939 33.3356 8.99006 35.3114 8.99006C37.2878 8.99006 38.8922 10.5939 38.8922 12.5719C38.8916 14.5489 37.2872 16.1549 35.3114 16.1549Z" fill="#E6F8FF"/>
<path d="M38.1301 24.9999H32.6356C31.8768 24.9999 31.2619 24.3851 31.2619 23.6263V21.0104C30.8976 20.8494 30.6004 20.6736 30.3356 20.4917L28.1416 21.701C27.4861 22.0631 26.6625 21.8329 26.2889 21.1845L23.3438 16.0796C23.1614 15.7642 23.1119 15.3889 23.207 15.0373C23.3015 14.6851 23.5317 14.3851 23.8476 14.2032L25.9246 13.0054C25.9174 12.8609 25.9136 12.717 25.9136 12.5719C25.9136 12.3845 25.9218 12.2016 25.935 12.0225L23.8965 10.8076C23.5834 10.6208 23.3575 10.3164 23.2674 9.96312C23.1784 9.60927 23.2339 9.23455 23.4213 8.92136L26.4586 3.85378C26.8443 3.20927 27.6751 2.99499 28.3246 3.37081L30.4279 4.58675C30.6652 4.42576 30.9328 4.26971 31.2614 4.12521V1.64828C31.2614 0.889493 31.8762 0.274658 32.635 0.274658H38.1295C38.8883 0.274658 39.5031 0.889493 39.5031 1.64828V4.25817C39.7564 4.384 40.0268 4.52301 40.2932 4.67741L42.4663 3.45213C43.1218 3.0818 43.9531 3.30872 44.3306 3.96202L47.2762 9.06422C47.4586 9.3796 47.5081 9.75488 47.4136 10.1065C47.3191 10.4582 47.0888 10.7587 46.7735 10.9406L44.7031 12.1356C44.7119 12.2845 44.7152 12.4291 44.7152 12.5725C44.7152 12.7505 44.7081 12.9313 44.6943 13.1203L46.7388 14.3335C47.052 14.5192 47.279 14.8225 47.3685 15.1758C47.4586 15.5296 47.4037 15.9038 47.218 16.2175L44.1993 21.2873C43.813 21.9362 42.9751 22.151 42.3251 21.7697L40.2009 20.5263C39.9658 20.6598 39.7295 20.7818 39.5031 20.8933V23.6263C39.5037 24.3851 38.8889 24.9999 38.1301 24.9999ZM34.0092 22.2527H36.7564V20.0362C36.7564 19.5208 37.0443 19.0494 37.502 18.8142C37.6377 18.7444 37.7932 18.6686 37.9597 18.5884C38.4125 18.3697 38.9757 18.0966 39.3119 17.8318C39.7548 17.4813 40.3685 17.44 40.8559 17.7258L42.5366 18.7093L44.1542 15.9933L42.5196 15.023C42.0312 14.7334 41.7724 14.173 41.8669 13.6137C41.9372 13.195 41.9691 12.8741 41.9691 12.5719C41.9691 12.2824 41.9427 11.9708 41.8872 11.5922C41.8048 11.0345 42.0707 10.4829 42.5592 10.2016L44.2114 9.24829L42.6323 6.51312L40.9125 7.4829C40.4268 7.75653 39.8218 7.70927 39.3834 7.36147C39.0476 7.09444 38.4806 6.81587 38.0257 6.59279C37.8251 6.49389 37.6399 6.40213 37.4839 6.31916C37.0367 6.08015 36.7575 5.61477 36.7575 5.10763V3.02191H34.0103V5.10708C34.0103 5.73455 33.5856 6.28235 32.9773 6.43785C32.2542 6.62301 31.9971 6.82576 31.5306 7.19389L31.3762 7.31532C30.9345 7.65982 30.3279 7.70213 29.8438 7.42136L28.1218 6.42576L26.4872 9.15268L28.1086 10.1192C28.5878 10.4049 28.8465 10.9521 28.7636 11.5038C28.7026 11.9093 28.6614 12.2466 28.6614 12.5719C28.6614 12.8867 28.6872 13.2032 28.7394 13.5395C28.8273 14.1005 28.5608 14.6576 28.068 14.9417L26.4097 15.8972L27.9954 18.645L29.7921 17.6549C30.2762 17.3884 30.8729 17.4373 31.307 17.7802L31.4009 17.8549C31.9301 18.2741 32.2218 18.5054 32.9888 18.7093C33.591 18.8692 34.0097 19.4137 34.0097 20.0367L34.0092 22.2527ZM35.3114 17.5285C32.5784 17.5285 30.3548 15.3049 30.3548 12.5719C30.3548 9.83949 32.5784 7.61642 35.3114 7.61642C38.0432 7.61642 40.2658 9.83949 40.2658 12.5719C40.2652 15.3049 38.0427 17.5285 35.3114 17.5285ZM35.3114 10.3637C34.0932 10.3637 33.102 11.3543 33.102 12.5719C33.102 13.7906 34.0932 14.7813 35.3114 14.7813C36.5284 14.7813 37.5185 13.79 37.5185 12.5719C37.518 11.3543 36.5279 10.3637 35.3114 10.3637Z" fill="#014073"/>
</svg>
