<svg width="75" height="75" viewBox="0 0 75 75" fill="none" xmlns="http://www.w3.org/2000/svg">
<g clip-path="url(#clip0_593_3773)">
<path fill-rule="evenodd" clip-rule="evenodd" d="M50.251 14.8324C47.9541 8.66953 42.9479 4.6875 37.4998 4.6875C29.7455 4.6875 23.4373 12.5719 23.4373 22.2656V24.1242L19.5783 20.2652C19.1213 19.807 18.3795 19.807 17.9213 20.2652C17.4631 20.7223 17.4631 21.4641 17.9213 21.9223L23.7795 27.7793C23.8873 27.8883 24.0174 27.975 24.1615 28.0348C24.3045 28.0934 24.4568 28.125 24.6092 28.125C24.7615 28.125 24.9139 28.0934 25.0568 28.0348C25.201 27.975 25.3311 27.8883 25.4389 27.7793L31.2971 21.9223C31.7553 21.4641 31.7553 20.7223 31.2971 20.2652C30.84 19.807 30.0982 19.807 29.64 20.2652L25.7811 24.1242V22.2656C25.7811 13.8656 31.0381 7.03125 37.4998 7.03125C41.96 7.03125 46.1037 10.4145 48.0561 15.6516C48.2811 16.2586 48.9572 16.5656 49.5631 16.3395C50.1701 16.1145 50.4771 15.4395 50.251 14.8324Z" fill="#014073"/>
<path fill-rule="evenodd" clip-rule="evenodd" d="M23.4375 42.1874C14.3906 42.1874 9.52148 40.8843 7.03125 39.1616V44.5312C7.03125 49.0874 21.7582 49.2187 23.4375 49.2187C25.1168 49.2187 39.8438 49.0874 39.8438 44.5312V39.1616C37.3535 40.8843 32.4844 42.1874 23.4375 42.1874Z" fill="#014073"/>
<path fill-rule="evenodd" clip-rule="evenodd" d="M23.4375 58.5937C25.1168 58.5937 39.8438 58.4624 39.8438 53.9062V48.5366C37.3535 50.2593 32.4844 51.5624 23.4375 51.5624C14.3906 51.5624 9.52148 50.2593 7.03125 48.5366V53.9062C7.03125 58.4624 21.7582 58.5937 23.4375 58.5937Z" fill="#014073"/>
<path fill-rule="evenodd" clip-rule="evenodd" d="M23.4375 60.9374C14.3906 60.9374 9.52148 59.6343 7.03125 57.9116V63.2812C7.03125 67.8374 21.7582 67.9687 23.4375 67.9687C25.1168 67.9687 39.8438 67.8374 39.8438 63.2812V57.9116C37.3535 59.6343 32.4844 60.9374 23.4375 60.9374Z" fill="#014073"/>
<path fill-rule="evenodd" clip-rule="evenodd" d="M23.4375 39.8438C25.1168 39.8438 39.8438 39.7125 39.8438 35.1562C39.8438 30.6 25.1168 30.4688 23.4375 30.4688C21.7582 30.4688 7.03125 30.6 7.03125 35.1562C7.03125 39.7125 21.7582 39.8438 23.4375 39.8438Z" fill="#014073"/>
<path fill-rule="evenodd" clip-rule="evenodd" d="M51.5625 28.125C53.2418 28.125 67.9688 27.9937 67.9688 23.4375C67.9688 18.8812 53.2418 18.75 51.5625 18.75C49.8832 18.75 35.1562 18.8812 35.1562 23.4375C35.1562 27.9937 49.8832 28.125 51.5625 28.125Z" fill="#014073"/>
<path fill-rule="evenodd" clip-rule="evenodd" d="M51.5625 49.2187C47.7316 49.2187 44.6566 48.9831 42.1875 48.5823V55.5257C46.2328 56.2124 50.6836 56.2499 51.5625 56.2499C53.2418 56.2499 67.9688 56.1187 67.9688 51.5624V46.1929C65.4785 47.9155 60.6094 49.2187 51.5625 49.2187Z" fill="#014073"/>
<path fill-rule="evenodd" clip-rule="evenodd" d="M51.5625 39.8437C47.7316 39.8437 44.6566 39.6081 42.1875 39.2073V46.1507C46.2328 46.8374 50.6836 46.8749 51.5625 46.8749C53.2418 46.8749 67.9688 46.7437 67.9688 42.1874V36.8179C65.4785 38.5405 60.6094 39.8437 51.5625 39.8437Z" fill="#014073"/>
<path fill-rule="evenodd" clip-rule="evenodd" d="M51.5625 30.4687C42.5156 30.4687 37.6465 29.1655 35.1562 27.4429V29.23C40.732 30.5999 42.1875 33.014 42.1875 35.1562V36.7757C46.2328 37.4624 50.6836 37.4999 51.5625 37.4999C53.2418 37.4999 67.9688 37.3687 67.9688 32.8124V27.4429C65.4785 29.1655 60.6094 30.4687 51.5625 30.4687Z" fill="#014073"/>
</g>
<defs>
<clipPath id="clip0_593_3773">
<rect width="75" height="75" fill="white"/>
</clipPath>
</defs>
</svg>
