<?xml version="1.0" encoding="UTF-8"?>
<svg version="1.1" xmlns="http://www.w3.org/2000/svg" width="36" height="36">
<path d="M0 0 C0.5259375 0.37253906 1.051875 0.74507813 1.59375 1.12890625 C1.26375 2.44890625 0.93375 3.76890625 0.59375 5.12890625 C1.76744141 5.21978516 1.76744141 5.21978516 2.96484375 5.3125 C4.48271484 5.43818359 4.48271484 5.43818359 6.03125 5.56640625 C7.54525391 5.68822266 7.54525391 5.68822266 9.08984375 5.8125 C11.59375 6.12890625 11.59375 6.12890625 12.59375 7.12890625 C12.71875 9.62890625 12.71875 9.62890625 12.59375 12.12890625 C11.59375 13.12890625 11.59375 13.12890625 8.03125 13.19140625 C6.896875 13.17078125 5.7625 13.15015625 4.59375 13.12890625 C4.51125 13.83015625 4.42875 14.53140625 4.34375 15.25390625 C3.3479989 19.07095213 1.40215551 22.32050074 -1.40625 25.12890625 C-7.37474063 25.71339121 -12.29994379 25.57566294 -17.40625 22.12890625 C-19.52129424 18.9563399 -19.72542542 17.92716375 -19.78125 14.25390625 C-19.80960938 13.41085938 -19.83796875 12.5678125 -19.8671875 11.69921875 C-19.23511195 8.17459406 -17.93987402 6.64176286 -15.40625 4.12890625 C-12.3125 2.4765625 -12.3125 2.4765625 -8.90625 1.19140625 C-7.7821875 0.74925781 -6.658125 0.30710937 -5.5 -0.1484375 C-2.40625 -0.87109375 -2.40625 -0.87109375 0 0 Z M-10.53125 5.50390625 C-11.42070312 5.94476563 -12.31015625 6.385625 -13.2265625 6.83984375 C-15.53828059 7.94111648 -15.53828059 7.94111648 -16.40625 10.12890625 C-17.07878111 15.83073808 -17.07878111 15.83073808 -14.46875 20.62890625 C-10.35520266 22.64370495 -6.90317378 22.48160615 -2.40625 22.12890625 C-3.06625 21.79890625 -3.72625 21.46890625 -4.40625 21.12890625 C-4.40625 20.13890625 -4.40625 19.14890625 -4.40625 18.12890625 C-2.75625 18.12890625 -1.10625 18.12890625 0.59375 18.12890625 C-0.72625 17.79890625 -2.04625 17.46890625 -3.40625 17.12890625 C-3.40625 16.13890625 -3.40625 15.14890625 -3.40625 14.12890625 C-1.75625 14.12890625 -0.10625 14.12890625 1.59375 14.12890625 C0.27375 13.13890625 -1.04625 12.14890625 -2.40625 11.12890625 C3.53375 10.63390625 3.53375 10.63390625 9.59375 10.12890625 C9.59375 9.79890625 9.59375 9.46890625 9.59375 9.12890625 C3.98375 9.12890625 -1.62625 9.12890625 -7.40625 9.12890625 C-6.27320008 5.7297565 -5.28106525 5.07636174 -2.40625 3.12890625 C-5.84764049 3.12890625 -7.48185315 3.96587227 -10.53125 5.50390625 Z " fill="#004072" transform="translate(21.40625,5.87109375)"/>
</svg>
