<svg width="50" height="50" viewBox="0 0 50 50" fill="none" xmlns="http://www.w3.org/2000/svg">
<g clip-path="url(#clip0_588_3641)">
<path d="M47.2236 14.5027L45.0458 12.0653C44.8193 11.8118 44.4432 11.7579 44.1546 11.9378L38.2352 15.6287C37.9645 15.7975 37.8424 16.1283 37.9384 16.4326L38.069 16.846H34.6013L34.6378 16.0449C34.6553 15.6592 34.3568 15.3323 33.9711 15.3147C33.5842 15.2955 33.2585 15.5957 33.241 15.9814L33.1811 17.2981L32.7356 17.8921L27.6733 16.943L22.4091 14.5832L23.4663 12.8213C23.6596 12.499 23.5636 12.0816 23.249 11.8761L20.1097 9.82588L20.026 9.12864L20.9748 9.04958C21.2044 9.03044 21.4098 8.89942 21.524 8.69935C21.6381 8.49928 21.6465 8.25564 21.5461 8.04836L20.7719 6.44833L21.99 5.66869C22.1614 5.55898 22.2765 5.3801 22.3053 5.17862L22.5142 3.71616C22.5589 3.40326 22.388 3.09917 22.0975 2.97461L20.635 2.34782C20.4872 2.28457 20.3222 2.27403 20.1676 2.31824L18.1008 2.90878L15.0454 0.177904C14.838 -0.00753857 14.5404 -0.0522858 14.2875 0.0638849L10.6662 1.72857C10.4474 1.82914 10.2958 2.03513 10.2649 2.27382C10.2339 2.51261 10.3279 2.75044 10.5137 2.90351L12.2015 4.29336L11.7173 4.6636C11.5388 4.80021 11.4368 5.01427 11.4431 5.23897L11.5127 7.6764C11.5205 7.94725 11.684 8.18917 11.9322 8.29738L13.8429 9.13026L9.23577 15.3529L7.18751 15.1774C6.98163 15.1594 6.77919 15.2337 6.63344 15.3796L5.10139 16.9117C4.86926 17.1438 4.82989 17.5061 5.00673 17.7827L7.07801 21.0224L3.259 21.2345C2.98815 21.2496 2.75043 21.4198 2.64922 21.6715C2.548 21.9231 2.60124 22.2105 2.78604 22.4091L4.66628 24.4287C4.79848 24.5707 4.98393 24.6514 5.17797 24.6514H5.54918L4.67521 25.5555C4.41006 25.8298 4.41372 26.2661 4.68349 26.5359L6.42455 28.2768C6.63247 28.4847 6.94818 28.5405 7.21462 28.416L9.30376 27.4411C9.46489 27.3659 9.59128 27.2322 9.65732 27.0672L9.66087 27.0583L9.91322 27.7793L8.82154 29.6596C8.7343 29.8097 8.70612 29.9869 8.74237 30.1566L10.0655 36.3546C10.0751 36.3995 10.0892 36.4435 10.1075 36.4858L12.7462 42.5963L14.4805 47.3135C14.5055 47.3817 14.541 47.4455 14.5858 47.5027L16.3268 49.7312C16.454 49.8939 16.6465 49.992 16.8528 49.9995C16.8612 49.9997 16.8695 49.9999 16.8778 49.9999C17.075 49.9999 17.2637 49.9164 17.3966 49.7694L21.2963 45.4517C21.3995 45.3373 21.4622 45.1922 21.4745 45.0389L22.1449 36.6581L27.2426 33.0169C27.2478 33.0131 27.2531 33.0094 27.2583 33.0054L32.1329 29.3145C32.3075 29.1823 32.41 28.9761 32.41 28.7571V27.7123L35.6637 25.9604C35.9819 25.789 36.117 25.4032 35.9753 25.0706L34.2346 20.9871L34.5036 18.2443H34.8592L35.4209 20.4347C35.4979 20.7353 35.7638 20.9492 36.074 20.9599L38.6371 21.0482L37.5924 22.2369C37.4147 22.4392 37.3689 22.7257 37.4747 22.9734C37.5806 23.2211 37.8194 23.3858 38.0885 23.397L39.3572 23.4499L40.6323 25.8787C40.7633 26.1283 41.0312 26.2749 41.3124 26.2503C41.5931 26.2256 41.8318 26.0348 41.9174 25.7662L44.4347 17.8742L47.1618 15.4956C47.3027 15.3727 47.3884 15.1986 47.4 15.012C47.4117 14.8255 47.3482 14.6421 47.2236 14.5027ZM6.48791 17.5029L7.39253 16.5983L9.50576 16.7795C9.74789 16.8002 9.98303 16.694 10.1274 16.4989L15.4896 9.25643C15.6163 9.0853 15.6582 8.86565 15.6031 8.65987C15.5482 8.4541 15.4023 8.28458 15.2071 8.19949L12.898 7.193L12.8513 5.55715L13.7507 4.86927C13.9201 4.73965 14.0213 4.53979 14.025 4.32649C14.0288 4.11319 13.9351 3.90978 13.7704 3.77414L12.2637 2.53316L14.4552 1.52581L17.4563 4.20828C17.6351 4.36812 17.8833 4.42513 18.1142 4.3593L20.3125 3.73122L21.054 4.04897L20.9662 4.66371L19.4952 5.60523C19.1969 5.79605 19.0885 6.17984 19.2427 6.49867L19.8437 7.74073L19.1872 7.79548C18.9981 7.81118 18.8234 7.90326 18.7034 8.05041C18.5834 8.19756 18.5285 8.38709 18.5511 8.57554L18.7599 10.3165C18.7846 10.5217 18.8988 10.7056 19.0718 10.8186L21.9205 12.6791L20.8044 14.5393C20.7016 14.7108 20.677 14.9179 20.737 15.1086C20.797 15.2994 20.9357 15.4553 21.118 15.537L27.1765 18.2529C27.2269 18.2754 27.2796 18.2919 27.3337 18.3022L32.9048 19.3467C32.933 19.352 32.9611 19.3555 32.9893 19.3573L32.9344 19.9173H8.03136L6.48791 17.5029ZM21.0674 35.7094C20.8996 35.8292 20.7933 36.017 20.7768 36.2226L20.0994 44.6909L16.9163 48.2149L15.7549 46.7284L14.0518 42.0958C14.0474 42.0836 14.0427 42.0717 14.0375 42.0598L11.4186 35.9952L11.0701 34.3625H22.9531L21.0674 35.7094ZM34.4387 25.0318L31.3793 26.679C31.153 26.801 31.0117 27.0374 31.0117 27.2946V28.4094L26.4218 31.8846L24.8911 32.978V32.9639H10.7716L10.1662 30.1283L11.2844 28.2028C11.387 28.0262 11.4071 27.8135 11.3396 27.6207L10.3647 24.8351C10.2683 24.56 10.0114 24.3735 9.72004 24.3671C9.42595 24.3626 9.16381 24.5358 9.05549 24.8064L8.46184 26.2905L7.06715 26.9413L6.15854 26.0327L7.70028 24.4377C7.89529 24.2359 7.9509 23.9371 7.8413 23.6787C7.73169 23.4203 7.47826 23.2525 7.19762 23.2525H5.48249L4.82602 22.5474L8.35062 22.3517C8.59877 22.3379 8.821 22.1934 8.93416 21.9722C9.04076 21.764 9.03441 21.5179 8.9219 21.3151H32.8585C32.8646 21.3337 32.8704 21.3524 32.878 21.3706L34.4387 25.0318ZM43.3685 16.9487C43.2721 17.0327 43.2007 17.1414 43.1619 17.2631L41.0933 23.7484L40.408 22.4431C40.2922 22.2223 40.0673 22.08 39.8182 22.0695L39.6089 22.0608L40.6625 20.8619C40.8409 20.6588 40.8864 20.3712 40.7791 20.1231C40.672 19.875 40.4316 19.7108 40.1614 19.7016L36.6454 19.5804L36.3028 18.2443H39.0229C39.2457 18.2443 39.4552 18.1381 39.5868 17.9584C39.7186 17.7787 39.7567 17.547 39.6896 17.3346L39.4351 16.5284L44.3952 13.4357L45.7095 14.9066L43.3685 16.9487Z" fill="#014073"/>
<path d="M22.2033 26.4177H21.2021L21.9101 25.7097C22.1832 25.4366 22.1832 24.9939 21.9101 24.7209C21.6371 24.4479 21.1944 24.4479 20.9214 24.7209L20.2135 25.4288V24.4277C20.2135 24.0415 19.9005 23.7285 19.5143 23.7285C19.1281 23.7285 18.8151 24.0415 18.8151 24.4277V25.4288L18.1071 24.7208C17.8341 24.4478 17.3914 24.4478 17.1184 24.7208C16.8453 24.9939 16.8453 25.4365 17.1184 25.7096L17.8264 26.4175H16.8252C16.439 26.4175 16.126 26.7306 16.126 27.1167C16.126 27.5029 16.439 27.8159 16.8252 27.8159H17.8263L17.1184 28.5238C16.8453 28.7969 16.8453 29.2395 17.1184 29.5125C17.2549 29.649 17.4339 29.7173 17.6127 29.7173C17.7916 29.7173 17.9706 29.649 18.1071 29.5125L18.8151 28.8045V29.8058C18.8151 30.1919 19.1281 30.5049 19.5143 30.5049C19.9005 30.5049 20.2135 30.1919 20.2135 29.8058V28.8046L20.9214 29.5125C21.0579 29.649 21.2368 29.7173 21.4157 29.7173C21.5946 29.7173 21.7736 29.649 21.9101 29.5125C22.1832 29.2394 22.1832 28.7968 21.9101 28.5238L21.2022 27.8159H22.2033C22.5895 27.8159 22.9025 27.5029 22.9025 27.1167C22.9025 26.7306 22.5894 26.4177 22.2033 26.4177Z" fill="#014073"/>
</g>
<defs>
<clipPath id="clip0_588_3641">
<rect width="50" height="50" fill="white"/>
</clipPath>
</defs>
</svg>
