<svg width="60" height="75" viewBox="0 0 60 75" fill="none" xmlns="http://www.w3.org/2000/svg">
<path d="M59.0729 36.4407L42.1209 19.4884C42.0502 19.4169 41.9548 19.3779 41.856 19.3779C41.8483 19.3779 41.8411 19.3779 41.8345 19.3779C41.7275 19.384 41.6279 19.4359 41.5611 19.5205L34.3363 28.6881C34.2171 28.8378 34.2309 29.0505 34.3654 29.1856L42.1503 36.9692C42.429 37.25 42.5826 37.6208 42.5826 38.0195C42.5808 38.4113 42.4263 38.7785 42.1506 39.0527L39.9018 41.3028C39.7754 41.4297 39.7558 41.6284 39.8535 41.7756C40.4154 42.6138 41.3315 43.9977 41.4186 44.1495C41.7005 44.714 41.794 46.1535 40.9638 46.7853L23.2539 60.3884C23.1622 60.4586 23.1082 60.5682 23.1082 60.6845C23.1082 62.1948 23.106 74.3148 23.1074 74.438C23.1074 74.6995 23.1074 74.8555 23.3145 74.9612C23.3667 74.9877 23.4237 74.9999 23.4833 74.9999C23.638 74.9999 23.7 74.94 23.8491 74.7914L24.1442 74.4923C24.4036 74.2362 59.0713 39.5843 59.0713 39.5843C59.9307 38.7146 59.928 37.3059 59.0729 36.4407Z" fill="#014073" fill-opacity="0.85"/>
<path d="M36.5467 0.167157L36.5409 0.159475C36.5364 0.155236 36.533 0.149673 36.5303 0.146229L36.5205 0.133779C36.4532 0.0529817 36.3544 0.00450344 36.249 0C36.2426 0 36.2378 0 36.232 0C36.1327 0 36.0363 0.037882 35.966 0.109672L0.65088 35.4291C0.230735 35.8434 0 36.4029 0 37.0008C0 37.5974 0.232324 38.1537 0.653528 38.5674L17.5997 55.516C17.6699 55.5878 17.7658 55.6262 17.8646 55.6262C17.872 55.6262 17.8794 55.6262 17.8869 55.6262C17.9936 55.6201 18.093 55.5687 18.1584 55.4826L25.3888 46.3149C25.5069 46.1661 25.4932 45.9547 25.3594 45.8177L17.5666 38.0339C17.2906 37.76 17.1411 37.3931 17.1398 37.0008C17.1385 36.6045 17.2906 36.2349 17.5666 35.9597L19.8218 33.7013C19.9497 33.5721 19.9682 33.3702 19.8628 33.2216L18.3253 31.0101C17.7041 30.1291 17.8969 28.8776 18.7547 28.2196L36.4704 14.6277C36.5631 14.5567 36.618 14.4478 36.618 14.3297L36.6214 0.393124C36.6217 0.311797 36.596 0.232325 36.5467 0.167157Z" fill="#014073"/>
<path d="M39.6664 43.9237L20.0496 31.1816L28.7143 43.6376C28.8997 43.9237 28.8814 44.4109 28.6756 44.6853L13.1554 64.3823C12.8818 64.7394 12.6524 65.1262 12.8468 65.5251C12.9504 65.7336 13.2044 65.9016 13.4503 65.9185C13.7568 65.9169 13.9917 65.7839 14.3141 65.5376L39.256 46.3903C40.019 45.808 39.9983 44.3971 39.6664 43.9237Z" fill="#014073"/>
<path d="M46.8682 9.48154C46.7495 9.24021 46.4899 9.07861 46.2189 9.07861C45.976 9.07861 45.7493 9.18325 45.4006 9.44949L20.4481 28.6116C19.6574 29.2164 19.4783 30.3698 20.0497 31.1818L39.6664 43.9238C39.3817 43.5069 31.0829 31.4766 30.9989 31.3547C30.8108 31.0888 30.827 30.5706 31.032 30.3105L46.5519 10.6071L46.5623 10.5934C46.815 10.2704 47.0672 9.89082 46.8682 9.48154Z" fill="#014073" fill-opacity="0.8"/>
</svg>
