<svg width="50" height="50" viewBox="0 0 50 50" fill="none" xmlns="http://www.w3.org/2000/svg">
<g clip-path="url(#clip0_588_3627)">
<path d="M47.5293 19.1998L45.8085 8.01646C45.7328 7.52472 45.4837 7.07628 45.1062 6.75225C44.7287 6.42822 44.2477 6.24999 43.7501 6.2498C32.3606 6.2498 26.5231 0.658129 26.4731 0.610213C26.0827 0.22219 25.5547 0.00439453 25.0043 0.00439453C24.4539 0.00439453 23.9259 0.22219 23.5356 0.610213C23.4772 0.658129 17.6397 6.2498 6.25014 6.2498C5.75262 6.24999 5.27159 6.42822 4.89406 6.75225C4.51653 7.07628 4.26743 7.52472 4.1918 8.01646L2.47097 19.1998C1.69913 24.2799 2.50705 29.4746 4.78534 34.0803C7.06362 38.6861 10.7022 42.4805 15.2085 44.9498L24.0001 49.7415C24.3062 49.9085 24.6494 49.996 24.9981 49.996C25.3468 49.996 25.6899 49.9085 25.996 49.7415L34.7876 44.9498C39.2947 42.4811 42.9341 38.687 45.2132 34.0812C47.4922 29.4753 48.3008 24.2804 47.5293 19.1998ZM32.796 41.2831L25.0001 45.5435L17.2043 41.2915C13.4475 39.2349 10.4134 36.0735 8.51297 32.2353C6.61252 28.3971 5.9375 24.0677 6.5793 19.8331L8.03764 10.3727C14.1203 10.2365 20.025 8.29368 25.0001 4.79146C29.9733 8.29324 35.8756 10.2368 41.9564 10.3748L43.4147 19.8331C44.0571 24.067 43.383 28.396 41.4837 32.2341C39.5844 36.0722 36.5516 39.234 32.796 41.2915V41.2831Z" fill="#014073"/>
<path d="M31.8603 17.2772L20.8332 28.3043L18.1395 25.6105C17.9473 25.4116 17.7174 25.2528 17.4632 25.1437C17.2091 25.0345 16.9357 24.977 16.6591 24.9746C16.3824 24.9722 16.1081 25.0249 15.8521 25.1297C15.596 25.2344 15.3634 25.3891 15.1678 25.5847C14.9722 25.7803 14.8175 26.0129 14.7128 26.269C14.608 26.525 14.5553 26.7993 14.5577 27.076C14.5601 27.3526 14.6176 27.6259 14.7268 27.8801C14.8359 28.1343 14.9947 28.3642 15.1936 28.5564L19.3603 32.723C19.751 33.1136 20.2808 33.333 20.8332 33.333C21.3856 33.333 21.9155 33.1136 22.3061 32.723L34.8061 20.223C35.1856 19.8301 35.3956 19.3039 35.3909 18.7576C35.3861 18.2114 35.167 17.6888 34.7808 17.3026C34.3945 16.9163 33.872 16.6972 33.3257 16.6925C32.7795 16.6877 32.2532 16.8977 31.8603 17.2772Z" fill="#014073"/>
</g>
<defs>
<clipPath id="clip0_588_3627">
<rect width="50" height="50" fill="white"/>
</clipPath>
</defs>
</svg>
