<svg width="50" height="50" viewBox="0 0 50 50" fill="none" xmlns="http://www.w3.org/2000/svg">
<g clip-path="url(#clip0_588_3575)">
<path d="M26.4236 16.101C26.535 16.4533 26.6489 16.9355 26.5602 17.3076C26.4335 17.8396 26.2377 17.8516 25.7176 17.9763C24.9876 18.1514 24.1979 18.3716 24.0441 17.4535C23.9144 16.6786 24.0309 15.7745 24.7672 15.3854C25.1453 15.1856 25.4398 15.0966 25.8305 15.2693C25.9759 15.3336 26.4737 15.8024 26.4672 15.749C26.6401 17.1682 28.8922 17.1855 28.7172 15.749C28.4777 13.783 26.2903 12.4776 24.4271 13.0964C22.3086 13.8 21.4968 15.7782 21.8379 17.9043C22.2022 20.1754 24.2183 20.5964 26.175 20.1754C27.1247 19.9711 28.0263 19.5666 28.5141 18.6816C29.0052 17.7903 28.8898 16.4406 28.5932 15.5028C28.1582 14.1272 25.9853 14.7148 26.4236 16.101Z" fill="#014073"/>
<path d="M24.3951 9.05607C25.9476 8.82462 26.294 11.2601 27.6417 11.5411C29.779 11.9868 30.5418 8.53334 30.4783 13.1342C30.4651 14.0925 29.9347 14.6427 30.6601 15.5758C31.4852 16.6371 34.3094 16.2353 32.3147 17.4486C31.2807 18.0775 30.2969 17.7357 29.7407 18.9185C29.1258 20.2262 30.1215 20.7915 30.4302 21.8862C30.65 22.6657 31.5226 22.7656 30.0552 22.7517C29.7512 22.7489 28.9994 22.1453 28.5191 22.0958C27.0579 21.9455 26.8492 22.6029 26.0496 23.5364C23.3414 26.6982 24.8135 22.9748 22.7453 22.0524C21.8538 21.6548 21.1048 22.6331 20.4325 22.4379C18.8793 21.9871 20.4014 20.095 19.8844 18.9805C19.64 18.4535 19.1675 18.4094 18.7828 17.9792C18.4808 17.8418 18.1788 17.7044 17.8768 17.567C17.5063 16.3929 17.7994 15.8305 18.7563 15.8798C19.4243 15.2268 20.2538 15.2404 20.4147 14.093C20.6006 12.768 18.9517 12.0303 20.237 11.6703C20.7158 11.5362 21.7093 12.2713 22.5674 11.9558C24.1107 11.3882 24.9127 9.94206 25.3012 8.4497C25.6662 7.04737 23.4966 6.44915 23.1316 7.85156C22.6086 9.86076 19.4864 8.07598 18.2406 8.73694C17.3679 9.19997 16.6984 10.1889 16.7244 11.144C16.741 11.7554 17.5953 12.3677 17.5677 12.8767C17.4899 14.3063 16.7444 13.7872 15.8357 14.6244C15.0663 15.3333 14.703 16.4005 14.9729 17.4438C15.3643 18.9572 17.4639 19.2227 17.6931 20.3323C17.997 21.8038 16.1263 22.9676 17.4993 24.4774C18.5637 25.6478 19.4731 24.8969 20.6913 24.856C22.7927 24.7856 22.2846 26.5322 23.907 27.0733C25.615 27.643 26.4215 26.2988 27.5635 25.5126C29.0181 24.5112 29.0714 25.4071 30.568 25.3659C31.5818 25.338 33.0931 24.0839 33.4022 23.2286C33.9144 21.8115 32.7404 22.0873 32.6074 20.9366C32.3789 18.961 34.6169 19.6082 35.3573 18.2401C35.8626 17.3065 35.5836 15.7496 34.8871 14.9947C34.52 14.5968 33.6569 14.5334 33.4062 14.2412C33.0138 13.7839 33.1035 13.5388 33.0312 12.8557C32.8094 10.7599 32.8021 10.1589 31.1962 8.56453C30.929 8.2992 30.4711 8.1403 30.1017 8.27521C28.1631 8.98308 28.7487 9.05238 27.3663 7.73121C26.287 6.69968 25.1699 6.68176 23.7969 6.88645C22.3698 7.0992 22.9763 9.26758 24.3951 9.05607Z" fill="#014073"/>
<path d="M4.85868 3.44206C16.4463 3.43652 28.0439 3.29038 39.6306 3.43694C40.8918 3.4529 42.7813 3.14143 43.9945 3.58621C47.083 4.71847 47.8202 6.21385 47.8667 9.15482C47.9139 12.141 47.953 15.1274 47.9834 18.1138C48.0137 21.1002 48.0353 24.0868 48.0489 27.0733C48.0697 31.6828 49.2422 36.3169 43.1307 37.7135C37.6742 38.9604 30.8448 38.1636 25.2618 38.1592C22.2811 38.1568 19.3006 38.1234 16.3203 38.0716C13.2189 38.0177 9.3978 38.4976 6.38643 37.843C4.55661 37.4452 3.38035 37.5976 2.41181 35.4345C1.77959 34.0225 1.9285 31.6648 1.90332 30.0398C1.86119 27.32 1.89678 24.5966 1.89603 21.8764C1.89518 18.8176 1.89433 15.7587 1.89348 12.6999C1.89315 11.529 1.71175 10.1841 1.89246 9.02927C2.3084 6.37101 4.26151 3.41564 7.39393 3.82631C8.82527 4.01396 8.81152 1.76216 7.39393 1.57631C0.146877 0.626203 -0.358747 4.6996 -0.357033 10.8646C-0.355843 15.147 -0.354653 19.4294 -0.353462 23.7117C-0.352352 27.7033 -0.858692 32.136 0.242184 36.0326C1.83728 41.6786 7.41498 40.1315 12.3464 40.2416C22.2651 40.4631 32.2287 40.605 42.1389 40.0191C44.1338 39.9012 46.8815 40.0519 48.5685 38.6652C51.0421 36.632 50.3173 32.8674 50.3099 30.0599C50.2976 25.4141 50.2649 20.7684 50.2119 16.1229C50.1723 12.6585 50.9794 7.87321 49.9179 4.51325C48.2325 -0.821993 37.2308 1.17658 33.2267 1.17849C23.7707 1.18302 14.3147 1.18754 4.85868 1.19206C3.41094 1.19275 3.40848 3.44275 4.85868 3.44206Z" fill="#014073"/>
<path d="M0.775674 32.2364C16.609 32.174 32.4423 32.1115 48.2756 32.0491C49.7231 32.0434 49.726 29.7934 48.2756 29.7991C32.4423 29.8615 16.609 29.924 0.775674 29.9864C-0.671826 29.9921 -0.674716 32.2421 0.775674 32.2364Z" fill="#014073"/>
<path d="M17.0765 48.8561C21.0537 46.1212 30.0393 46.4764 33.9511 49.0053C35.1707 49.7938 36.2999 47.8468 35.0867 47.0625C31.9631 45.0432 28.8657 44.9137 25.2224 45.022C22.0064 45.1175 18.6858 45.0258 15.9409 46.9133C14.7552 47.7286 15.8792 49.6794 17.0765 48.8561Z" fill="#014073"/>
<path d="M29.5912 40.3501C29.8893 42.3829 29.9316 44.4278 29.7776 46.4749C29.6689 47.9191 31.9194 47.9122 32.0276 46.4749C32.1977 44.2146 32.0895 41.993 31.7608 39.7519C31.5515 38.3246 29.3831 38.9314 29.5912 40.3501Z" fill="#014073"/>
<path d="M19.7339 39.8951C19.7339 42.2284 19.7339 44.5617 19.7339 46.8951C19.7339 48.3428 21.9839 48.3452 21.9839 46.8951C21.9839 44.5617 21.9839 42.2284 21.9839 39.8951C21.9839 38.4473 19.7339 38.4449 19.7339 39.8951Z" fill="#014073"/>
</g>
<defs>
<clipPath id="clip0_588_3575">
<rect width="50" height="50" fill="white"/>
</clipPath>
</defs>
</svg>
