<svg width="50" height="50" viewBox="0 0 50 50" fill="none" xmlns="http://www.w3.org/2000/svg">
<g clip-path="url(#clip0_588_3594)">
<path d="M47.4559 15.4713V13.3361L44.5987 12.454L44.3782 11.4113L46.3933 9.33618L45.3507 7.39126L42.4435 8.14312L41.7216 7.39126L42.4735 4.56431L40.5588 3.40142L38.4236 5.50669L37.3509 5.18589L36.6491 2.53931H34.3834L33.7619 5.18589L32.5488 5.50669L30.5739 3.40142L28.6291 4.50415L29.4409 7.2811L28.6291 8.12319L25.7721 7.37134L24.6692 9.28599L26.7444 11.3914L26.4537 12.4341L23.5966 13.2159L23.5664 15.3914L26.4536 16.1432L26.6942 17.3561L24.6791 19.3512L25.7218 21.2058L28.6891 20.454L29.4109 21.3161L28.599 24.0128L30.594 25.1756L32.5389 23.1306L33.7017 23.4214L34.3734 26.2784L36.639 26.3087L37.3106 23.4215L38.4734 23.0706L40.5487 25.236L42.5938 24.0229L41.7116 21.2159L42.4935 20.4041L45.3807 21.2862L46.4132 19.2711L44.3181 17.3864L44.5385 16.1734L47.4559 15.4713ZM35.5062 20.0027C32.3686 20.0027 29.8121 17.4564 29.8121 14.3084C29.8121 11.1605 32.3583 8.61431 35.5062 8.61431C38.6541 8.61431 41.2004 11.1605 41.2004 14.3084C41.2004 17.4663 38.6541 20.0027 35.5062 20.0027Z" fill="#014073" fill-opacity="0.56"/>
<path d="M42.7543 21.6467L47.456 23.1003V27.1003L41.9322 28.4438L41.5212 30.7194L45.4211 34.2582L43.4961 38.0576L38.0827 36.3833L36.619 37.9071L38.2932 43.1702L34.4538 45.446L30.5541 41.3861L28.3787 42.0474L27.1153 47.461L22.8649 47.411L21.6017 42.0375L19.4263 41.4762L15.7773 45.3257L12.0279 43.1503L13.5518 38.0876L12.1783 36.4737L6.61445 37.8874L4.63945 34.3985L8.43906 30.6493L7.95781 28.3636L2.54443 26.95L2.59453 22.8499L7.95781 21.3761L8.5292 19.4013L4.62949 15.4514L6.70469 11.8625L12.0781 13.2761L13.602 11.7021L12.0781 6.48921L15.7271 4.41411L19.4163 8.36392L21.692 7.75239L22.8549 2.53931H27.1056L28.2684 7.14077L26.0028 6.54937L25.3712 6.37876L25.0403 6.95024L23.9375 8.86499L23.6067 9.42642L24.0679 9.88755L25.792 11.6319L25.762 11.7322L23.3761 12.3838L22.7546 12.5542L22.7445 13.1958L22.7243 14.4889C17.9625 15.5315 14.3736 19.7822 14.3736 24.8647C14.3736 30.7092 19.1155 35.4611 24.9699 35.4611C30.0327 35.4611 34.2632 31.9122 35.3157 27.1603L36.639 27.1804L37.3307 27.1905L37.4911 26.5189L38.0525 24.1129L38.243 24.0527L39.9574 25.8373L40.4285 26.3282L41.0098 25.9876L43.055 24.7745L43.6364 24.4237L43.4359 23.7719L42.7543 21.6467Z" fill="#014073"/>
</g>
<defs>
<clipPath id="clip0_588_3594">
<rect width="50" height="50" fill="white"/>
</clipPath>
</defs>
</svg>
