<svg width="75" height="75" viewBox="0 0 75 75" fill="none" xmlns="http://www.w3.org/2000/svg">
<path d="M73.5577 36.0547C73.3683 36.0546 73.1807 36.0919 73.0057 36.1644C72.8307 36.2368 72.6717 36.3431 72.5377 36.477C72.4038 36.611 72.2975 36.77 72.2251 36.945C72.1526 37.12 72.1153 37.3076 72.1154 37.497C72.1158 45.3478 69.4475 52.9655 64.5485 59.1002C59.6495 65.2349 52.8107 69.5222 45.1543 71.2585C37.4979 72.9947 29.4787 72.0769 22.4126 68.6556C15.3465 65.2343 9.65324 59.5128 6.267 52.4298C2.88076 45.3468 2.0027 37.3232 3.7769 29.6755C5.55111 22.0278 9.87219 15.2104 16.0311 10.3418C22.19 5.47323 29.8209 2.84276 37.6716 2.88204C45.5222 2.92132 53.1264 5.62801 59.2363 10.558H53.1541C52.7716 10.558 52.4047 10.7099 52.1342 10.9804C51.8638 11.2509 51.7118 11.6177 51.7118 12.0003C51.7118 12.3828 51.8638 12.7496 52.1342 13.0201C52.4047 13.2906 52.7716 13.4426 53.1541 13.4426H62.9967C63.3788 13.4411 63.7448 13.2887 64.015 13.0185C64.2851 12.7483 64.4376 12.3823 64.439 12.0003V2.15764C64.439 1.77512 64.2871 1.40826 64.0166 1.13778C63.7461 0.867291 63.3793 0.715335 62.9967 0.715335C62.6142 0.715335 62.2474 0.867291 61.9769 1.13778C61.7064 1.40826 61.5544 1.77512 61.5544 2.15764V8.73394C54.1469 2.5387 44.6349 -0.559961 34.9997 0.0833657C25.3645 0.726693 16.3489 5.06241 9.83074 12.1874C3.31262 19.3125 -0.205462 28.6774 0.00928306 38.3317C0.224028 47.986 4.15504 57.1853 10.9835 64.0135C16.228 69.2579 22.9099 72.8295 30.1841 74.2764C37.4584 75.7234 44.9984 74.9807 51.8506 72.1424C58.7028 69.3042 64.5595 64.4977 68.6801 58.3309C72.8007 52.164 75 44.9138 75 37.497C75 37.3076 74.9628 37.12 74.8903 36.945C74.8178 36.77 74.7116 36.611 74.5777 36.477C74.4437 36.3431 74.2847 36.2368 74.1097 36.1644C73.9347 36.0919 73.7471 36.0546 73.5577 36.0547Z" fill="#014073"/>
<path d="M45.468 27.1459L38.1184 47.3382C38.0531 47.5163 38.0236 47.7055 38.0315 47.895C38.0395 48.0845 38.0847 48.2705 38.1647 48.4425C38.2446 48.6145 38.3577 48.769 38.4975 48.8972C38.6373 49.0254 38.8009 49.1248 38.9792 49.1897C39.1574 49.2545 39.3467 49.2835 39.5361 49.2751C39.7256 49.2667 39.9116 49.221 40.0833 49.1406C40.2551 49.0602 40.4094 48.9467 40.5372 48.8066C40.665 48.6665 40.764 48.5026 40.8284 48.3242L48.178 28.1319C48.3087 27.7725 48.2914 27.3759 48.1297 27.0294C47.968 26.6828 47.6753 26.4147 47.316 26.2839C46.9566 26.1532 46.56 26.1705 46.2135 26.3322C45.8669 26.4938 45.5988 26.7866 45.468 27.1459Z" fill="#014073"/>
<path d="M25.3271 34.8884C25.329 34.1887 25.1921 33.4955 24.9243 32.849C24.6565 32.2025 24.2632 31.6156 23.7671 31.1221C21.7544 29.1079 18.2472 29.1079 16.2345 31.1221C15.7382 31.6154 15.3447 32.2024 15.0768 32.8489C14.8089 33.4954 14.6719 34.1886 14.6738 34.8884C14.6738 35.2709 14.8258 35.6378 15.0963 35.9083C15.3668 36.1788 15.7336 36.3307 16.1162 36.3307C16.4987 36.3307 16.8655 36.1788 17.136 35.9083C17.4065 35.6378 17.5585 35.2709 17.5585 34.8884C17.5577 34.5676 17.6206 34.2498 17.7434 33.9534C17.8662 33.657 18.0465 33.3879 18.274 33.1616C18.7389 32.7168 19.3574 32.4686 20.0008 32.4686C20.6442 32.4686 21.2627 32.7168 21.7276 33.1616C22.1853 33.6194 22.4425 34.2403 22.4425 34.8877C22.4425 35.5351 22.1853 36.156 21.7276 36.6138L15.0964 43.2451C14.8947 43.4467 14.7573 43.7037 14.7016 43.9835C14.6459 44.2633 14.6745 44.5533 14.7837 44.8168C14.8928 45.0804 15.0777 45.3056 15.3149 45.4641C15.552 45.6226 15.8309 45.7071 16.1162 45.7071H23.8848C24.2673 45.7071 24.6342 45.5552 24.9047 45.2847C25.1751 45.0142 25.3271 44.6473 25.3271 44.2648C25.3271 43.8823 25.1751 43.5154 24.9047 43.245C24.6342 42.9745 24.2673 42.8225 23.8848 42.8225H19.598L23.7671 38.6533C24.2632 38.1601 24.6565 37.5734 24.9243 36.9271C25.192 36.2809 25.3289 35.5879 25.3271 34.8884Z" fill="#014073"/>
<path d="M33.55 45.7073C33.7394 45.7073 33.927 45.67 34.102 45.5976C34.277 45.5251 34.436 45.4189 34.57 45.2849C34.7039 45.151 34.8101 44.992 34.8826 44.817C34.9551 44.6419 34.9923 44.4544 34.9923 44.265V42.1141H35.7367C36.1192 42.1141 36.4861 41.9622 36.7566 41.6917C37.0271 41.4212 37.179 41.0543 37.179 40.6718C37.179 40.2893 37.0271 39.9224 36.7566 39.6519C36.4861 39.3815 36.1192 39.2295 35.7367 39.2295H34.9923V31.0038C34.9922 30.6934 34.8919 30.3913 34.7064 30.1423C34.5209 29.8934 34.2601 29.711 33.9626 29.6221C33.6652 29.5332 33.347 29.5426 33.0553 29.6489C32.7637 29.7552 32.5141 29.9528 32.3436 30.2123L26.0039 39.8802C25.8612 40.0978 25.78 40.3499 25.7689 40.6099C25.7578 40.8699 25.8172 41.128 25.9408 41.357C26.0645 41.586 26.2478 41.7772 26.4713 41.9105C26.6947 42.0438 26.9501 42.1141 27.2103 42.1141H32.1077V44.265C32.1076 44.4544 32.1449 44.6419 32.2174 44.817C32.2898 44.992 32.3961 45.151 32.53 45.2849C32.664 45.4189 32.823 45.5251 32.998 45.5976C33.173 45.67 33.3606 45.7073 33.55 45.7073ZM29.8808 39.2295L32.1077 35.8336V39.2295H29.8808Z" fill="#014073"/>
<path d="M53.1759 44.2649C53.1759 44.6474 53.3279 45.0143 53.5984 45.2847C53.8688 45.5552 54.2357 45.7072 54.6182 45.7072C55.0007 45.7072 55.3676 45.5552 55.6381 45.2847C55.9086 45.0143 56.0605 44.6474 56.0605 44.2649V41.2957C56.056 39.573 56.3932 37.8665 57.0525 36.2749C57.7118 34.6834 58.6801 33.2383 59.9015 32.0235C60.1032 31.8218 60.2406 31.5648 60.2963 31.285C60.352 31.0053 60.3234 30.7153 60.2143 30.4517C60.1051 30.1882 59.9202 29.9629 59.6831 29.8044C59.4459 29.646 59.167 29.5614 58.8818 29.5614H50.3554C49.9729 29.5614 49.606 29.7134 49.3355 29.9838C49.065 30.2543 48.9131 30.6212 48.9131 31.0037C48.9131 31.3862 49.065 31.7531 49.3355 32.0236C49.606 32.2941 49.9729 32.446 50.3554 32.446H55.8408C54.095 35.0666 53.1674 38.1469 53.1759 41.2957V44.2649Z" fill="#014073"/>
</svg>
