<svg width="75" height="75" viewBox="0 0 75 75" fill="none" xmlns="http://www.w3.org/2000/svg">
<path d="M51.1515 63.2353V69.7059C51.1515 71.8176 49.4398 73.5294 47.328 73.5294H26.9368C24.825 73.5294 23.1133 71.8176 23.1133 69.7059V63.2353L36.1765 59.804L51.1515 63.2353Z" fill="white"/>
<path d="M44.4854 26.4706C51.3889 26.4706 56.9854 20.8741 56.9854 13.9706C56.9854 7.06702 51.3889 1.47058 44.4854 1.47058C37.5818 1.47058 31.9854 7.06702 31.9854 13.9706C31.9854 20.8741 37.5818 26.4706 44.4854 26.4706Z" fill="#E0F1F5"/>
<path d="M48.6019 45C48.6019 42.847 50.3788 41.1261 52.5166 41.178C54.6049 41.2265 56.249 42.9883 56.249 45.078V47.8C56.249 50.4283 55.3812 53.0372 53.7004 55.1809C52.0475 57.2868 51.1504 59.8853 51.1504 62.5618V63.2353H23.1122C23.0709 62.9689 23.5104 59.0525 20.5622 55.375C18.9122 53.3118 18.0137 50.7486 18.0137 48.1074C18.0137 45.7586 18.0137 39.7242 18.0137 37.6471C18.0137 35.494 19.7906 33.7731 21.9284 33.825C24.0166 33.8736 25.6607 35.6353 25.6607 37.725V36.1765C25.6607 34.0647 27.3725 32.353 29.4843 32.353C31.594 32.353 33.3078 34.0647 33.3078 36.1765V34.7059C33.3078 32.5942 35.0196 30.8824 37.1313 30.8824C39.241 30.8824 40.9548 32.5942 40.9548 34.7059C40.9548 31.149 40.9548 23.0349 40.9548 20C40.9548 17.8903 42.6666 16.1765 44.7784 16.1765C46.8901 16.1765 48.6019 17.8883 48.6019 20C48.6019 25.2422 48.6019 39.9843 48.6019 45Z" fill="white"/>
<path d="M52.5517 39.7073C51.6606 39.6847 50.8179 39.8854 50.0734 40.2557V26.7763C55.1279 24.572 58.4557 19.5526 58.4557 13.9707C58.4557 6.26733 52.1885 0.00012207 44.4851 0.00012207C36.7817 0.00012207 30.5145 6.26733 30.5145 13.9707C30.5145 19.9509 34.2534 25.0032 39.4851 27.0164V29.9654C37.0729 28.7632 34.0947 29.5659 32.6317 31.9222C30.136 30.0714 26.6001 30.7666 24.9732 33.4107C24.1248 32.7714 23.0859 32.3809 21.9635 32.3545C18.9447 32.2834 16.5439 34.7184 16.5439 37.647V48.1078C16.5439 51.0716 17.5637 53.9788 19.4157 56.2945C20.895 58.141 21.642 60.3942 21.642 62.641V69.7059C21.642 72.6251 24.0169 75 26.9362 75H47.3282C50.2475 75 52.6223 72.6251 52.6223 69.7059V62.562C52.6223 60.2254 53.4161 57.9266 54.8575 56.0894C56.706 53.7351 57.7204 50.8129 57.7204 47.8007V45.0773C57.7204 42.1829 55.4017 39.7739 52.5517 39.7073ZM33.4557 13.9706C33.4557 7.88895 38.4035 2.94115 44.4851 2.94115C50.5667 2.94115 55.5145 7.88895 55.5145 13.9706C55.5145 17.9287 53.3956 21.5288 50.0734 23.4819V20C50.0734 17.0807 47.6985 14.7059 44.7792 14.7059C41.86 14.7059 39.4851 17.0807 39.4851 20V23.7987C35.8566 21.9425 33.4557 18.146 33.4557 13.9706ZM47.3282 72.0588H26.9362C25.6388 72.0588 24.5832 71.0032 24.5832 69.7059V64.7059H49.6811V69.7059C49.6811 71.0032 48.6256 72.0588 47.3282 72.0588ZM54.7792 47.8007C54.7792 50.2284 53.9397 52.496 52.5438 54.2737C50.8622 56.4172 49.8716 59.0512 49.7081 61.7647H24.551C24.3679 59.0237 23.3367 56.4848 21.712 54.4566C20.276 52.6613 19.4851 50.4066 19.4851 48.1078V37.647C19.4851 36.3403 20.5529 35.2684 21.895 35.2947C23.161 35.3242 24.191 36.4142 24.191 37.7244V41.1764C24.191 41.9885 24.8495 42.647 25.6616 42.647C26.4737 42.647 27.1322 41.9885 27.1322 41.1764C27.1322 40.1907 27.1322 37.16 27.1322 36.1764C27.1322 34.8791 28.1878 33.8235 29.4851 33.8235C30.7825 33.8235 31.8381 34.8791 31.8381 36.1764V41.1764C31.8381 41.9885 32.4966 42.647 33.3087 42.647C34.1207 42.647 34.7792 41.9885 34.7792 41.1764C34.7792 39.3222 34.7792 36.1014 34.7792 34.7059C34.7792 33.4085 35.8348 32.3529 37.1322 32.3529C38.4295 32.3529 39.4851 33.4085 39.4851 34.7059V41.1764C39.4851 41.9885 40.1437 42.647 40.9557 42.647C41.7678 42.647 42.4263 41.9885 42.4263 41.1764C42.4263 37.9891 42.4263 22.2797 42.4263 20C42.4263 18.7026 43.4819 17.647 44.7792 17.647C46.0766 17.647 47.1322 18.7026 47.1322 20C47.1322 23.7763 47.1322 44.1742 47.1322 48.9132C47.1322 49.7253 47.7907 50.3838 48.6028 50.3838C49.4148 50.3838 50.0734 49.7253 50.0734 48.9132C50.0734 47.9463 50.0734 45.9678 50.0734 45C50.0734 43.7198 51.1132 42.6223 52.4832 42.6476C53.7492 42.6772 54.7792 43.7672 54.7792 45.0773V47.8007Z" fill="#014073"/>
<path d="M44.4847 8.8235C47.3228 8.8235 49.6318 11.1325 49.6318 13.9706C49.6318 14.7826 50.2903 15.4411 51.1024 15.4411C51.9144 15.4411 52.573 14.7826 52.573 13.9706C52.573 9.51071 48.9446 5.88232 44.4847 5.88232C40.0249 5.88232 36.3965 9.51071 36.3965 13.9706C36.3965 14.7826 37.055 15.4411 37.8671 15.4411C38.6791 15.4411 39.3377 14.7826 39.3377 13.9706C39.3377 11.1325 41.6466 8.8235 44.4847 8.8235Z" fill="#014073"/>
</svg>
