<svg width="75" height="64" viewBox="0 0 75 64" fill="none" xmlns="http://www.w3.org/2000/svg">
<g clip-path="url(#clip0_643_2012)">
<mask id="mask0_643_2012" style="mask-type:luminance" maskUnits="userSpaceOnUse" x="0" y="0" width="75" height="64">
<path d="M74.8934 0H0.371094V64H74.8934V0Z" fill="white"/>
</mask>
<g mask="url(#mask0_643_2012)">
<path d="M60.4317 56.1286C60.2296 56.7955 60.0853 57.3619 59.8881 57.9081C58.635 61.3819 55.9689 63.0752 52.5438 63.7576C49.8127 64.3076 46.9773 63.759 44.6411 62.2283C42.351 60.8006 41.2471 58.6458 41.0232 55.8476C40.5711 55.8086 40.1172 55.7383 39.6626 55.7345C29.7732 55.6565 19.8834 55.6026 9.99418 55.5021C7.83179 55.4799 5.66816 55.3327 3.51136 55.1643C2.93184 55.1296 2.37849 54.9088 1.93217 54.5339C1.56371 54.1109 1.35077 53.5729 1.32918 53.0099C1.29052 52.3545 1.80971 51.9801 2.43465 51.8416C2.74249 51.7718 3.05624 51.7323 3.37157 51.7232C7.28047 51.6462 11.189 51.5552 15.0982 51.5115C22.5547 51.4282 30.0112 51.3608 37.4674 51.3089C39.05 51.2959 40.633 51.3069 42.0254 51.3069C43.1309 50.0048 44.031 48.7388 45.1327 47.688C47.8322 45.1133 51.0892 44.5638 54.5702 45.5607C57.0041 46.2578 58.7611 47.7879 59.2704 50.4571C59.3196 50.716 59.429 50.9643 59.5838 51.447C60.0815 51.447 60.6433 51.4402 61.2051 51.447C64.5366 51.4912 67.8686 51.5182 71.1992 51.6014C71.9363 51.6236 72.6658 51.7574 73.3637 51.998C73.797 52.1399 74.1701 52.4257 74.4223 52.8088C74.675 53.1913 74.7925 53.649 74.7552 54.1075C74.7648 54.5406 74.6334 54.9651 74.3822 55.3163C74.1304 55.6676 73.7721 55.926 73.3613 56.0526C72.6581 56.2701 71.9248 56.374 71.1892 56.3605C68.1748 56.3163 65.1619 56.2085 62.1481 56.1296C61.6231 56.117 61.0971 56.1286 60.4317 56.1286ZM55.6451 53.9435C55.6374 52.3824 55.2739 50.8286 54.5602 49.8725C54.2845 49.5058 53.8952 49.2435 53.4538 49.1271C50.3344 48.4938 46.9998 50.8849 46.2002 53.6764C45.506 56.1007 46.2673 57.6343 48.6123 58.4985C52.4674 59.9195 55.6651 57.8494 55.6451 53.9435Z" fill="#014073"/>
<path d="M28.3289 28.8243C29.8524 28.8243 31.221 28.858 32.5879 28.8186C39.0401 28.6328 45.4933 28.4344 51.9467 28.2235C57.8708 28.0225 63.7929 27.7781 69.7165 27.5642C70.455 27.5105 71.1964 27.5254 71.9326 27.6086C72.4652 27.6663 72.9606 27.9132 73.3299 28.3054C73.6991 28.6976 73.9184 29.2094 73.9485 29.7496C73.959 30.7246 73.2721 31.5584 72.1117 31.8724C71.5991 31.9998 71.0741 32.0657 70.5467 32.0679C60.9706 32.2833 51.395 32.4928 41.82 32.6963C37.5345 32.7937 33.25 32.9283 28.9649 33.0507C28.7064 33.0582 28.4489 33.1087 28.0577 33.1546C27.0465 38.1023 23.5594 40.179 18.9888 40.2102C14.9071 40.2396 11.8128 38.2053 10.5057 34.0104C8.44473 33.9167 6.44185 33.8518 4.44307 33.7216C3.70718 33.666 2.97905 33.533 2.27049 33.3248C1.95645 33.2473 1.68032 33.0585 1.49211 32.7931C1.30391 32.5277 1.21608 32.2031 1.2445 31.8777C1.24287 31.5512 1.36079 31.2352 1.57565 30.9909C1.79051 30.7465 2.08717 30.5909 2.40872 30.5538C2.98014 30.4517 3.56018 30.4069 4.14034 30.4205C6.19822 30.4058 8.25637 30.4145 10.3346 30.4145C10.5511 29.7764 10.7252 29.3401 10.848 28.8896C11.3204 27.1228 12.2918 25.5329 13.6436 24.3139C14.517 23.5474 15.5728 23.0233 16.7074 22.7932C18.3729 22.5038 20.0648 22.4005 21.7526 22.4851C24.9395 22.5981 26.8857 24.4564 27.9346 27.3866C28.0942 27.8359 28.1891 28.3086 28.3289 28.8243ZM18.641 26.9619C18.0154 27.1037 16.9124 27.0937 16.1131 27.5863C14.19 28.7727 14.2404 33.2302 16.1351 34.4961C17.8617 35.6513 19.7239 35.5995 21.5597 34.73C23.2112 33.9479 23.3906 32.2948 23.4197 30.8057C23.4608 28.6993 22.9413 27.3332 20.2703 27.1162C19.8519 27.0819 19.4313 27.0365 18.641 26.9619Z" fill="#014073"/>
<path d="M46.6753 11.2044C46.1926 11.2044 45.8265 11.2016 45.4607 11.2044C32.607 11.3085 19.7535 11.4114 6.90089 11.5134C5.79036 11.5222 4.67987 11.5039 3.56933 11.4585C2.9879 11.4384 2.40964 11.3627 1.84233 11.2325C0.92333 11.014 0.352517 10.3515 0.3788 9.58445C0.374803 9.20488 0.503521 8.83603 0.742322 8.54284C0.981118 8.24969 1.31469 8.0509 1.68433 7.98156C2.29624 7.82238 2.92152 7.72123 3.55204 7.67913C17.1794 6.79564 30.8284 6.76739 44.4746 6.63626C45.2634 6.6288 46.0516 6.63626 46.8735 6.63626C47.166 6.01657 47.4242 5.50154 47.6552 4.97424C48.2044 3.62306 49.221 2.51908 50.5156 1.86754C52.4193 0.940633 54.4046 0.185535 56.5452 0.0356818C60.2293 -0.222504 62.4702 1.27631 63.7017 4.77881C63.8565 5.22273 63.9974 5.67261 64.1885 6.25582C66.096 6.16497 67.9858 6.05694 69.8766 5.99419C70.5597 5.94968 71.2457 5.99049 71.9188 6.11589C72.3673 6.20193 72.7748 6.43579 73.0772 6.78077C73.3801 7.12584 73.5606 7.56248 73.5907 8.02227C73.6213 8.48206 73.4995 8.93911 73.2444 9.32152C72.9903 9.70393 72.6167 9.99015 72.1834 10.1354C71.5361 10.3625 70.8621 10.503 70.1785 10.5532C68.1296 10.7371 66.0759 10.8669 63.932 11.0249C62.6642 15.6453 59.3422 17.5294 54.8837 17.4067C50.8997 17.2968 47.8705 15.5236 46.6753 11.2044ZM50.5643 8.79739C50.229 10.9428 52.3051 13.2452 54.5302 13.1709C57.8498 13.0601 59.829 11.1768 59.8275 8.67209C59.8275 5.85609 58.511 4.3374 55.4278 4.19285C52.5014 4.0558 50.5882 5.96267 50.5643 8.79739Z" fill="#014073"/>
</g>
</g>
<defs>
<clipPath id="clip0_643_2012">
<rect width="75" height="64" fill="white"/>
</clipPath>
</defs>
</svg>
