<svg width="75" height="75" viewBox="0 0 75 75" fill="none" xmlns="http://www.w3.org/2000/svg">
<path fill-rule="evenodd" clip-rule="evenodd" d="M73.4375 62.5C73.4375 66.8156 69.9406 70.3125 65.625 70.3125H9.375C5.05937 70.3125 1.5625 66.8156 1.5625 62.5V17.1875C1.5625 13.7359 4.36094 10.9375 7.8125 10.9375H39.3297L51.9844 6.35313C52.7859 6.06095 53.6734 6.47501 53.9656 7.27345L55.2984 10.9375H60.9375C64.3891 10.9375 67.1875 13.7359 67.1875 17.1875V20.3125C70.6391 20.3125 73.4375 23.1109 73.4375 26.5625V62.5ZM7.8125 14.0625C6.0875 14.0625 4.6875 15.4625 4.6875 17.1875C4.6875 18.9125 6.0875 20.3125 7.8125 20.3125H13.1953H13.4906C13.5109 20.3047 13.5234 20.2875 13.5438 20.2797L30.7031 14.0625H7.8125ZM53.2469 14.3453L51.5875 9.77657L48.3813 10.9375H48.3859L39.7703 14.0625H39.7547L22.5063 20.3125H55.4156L53.2469 14.3453ZM64.0625 17.1875C64.0625 15.4625 62.6625 14.0625 60.9375 14.0625H56.4328L58.7047 20.3125H64.0625V17.1875ZM67.1875 23.4375H7.8125C6.66875 23.4375 5.60938 23.1078 4.6875 22.5703V62.5C4.6875 65.0891 6.7875 67.1875 9.375 67.1875H65.625C68.2141 67.1875 70.3125 65.0891 70.3125 62.5V51.5625H64.0625C60.6109 51.5625 57.8125 48.7641 57.8125 45.3125C57.8125 41.8609 60.6109 39.0625 64.0625 39.0625H70.3125V26.5625C70.3125 24.8375 68.9125 23.4375 67.1875 23.4375ZM70.3125 48.4375V42.1875H64.0625C62.3375 42.1875 60.9375 43.5875 60.9375 45.3125C60.9375 47.0375 62.3375 48.4375 64.0625 48.4375H70.3125ZM64.0625 43.75H67.1875V46.875H64.0625V43.75Z" fill="#014073"/>
</svg>
