<svg width="75" height="75" viewBox="0 0 75 75" fill="none" xmlns="http://www.w3.org/2000/svg">
<path d="M32.1719 37.2178C32.1719 40.4707 34.8113 43.1086 38.0627 43.1086C40.3471 43.1086 42.3048 41.7956 43.2821 39.8959L43.2984 39.9107L54.0522 20.5094L35.1737 32.086L35.1915 32.1038C33.3988 33.1154 32.1719 35.0136 32.1719 37.2178Z" fill="#014073"/>
<path d="M61.7956 9.14812C55.7592 3.87224 47.9598 0.503525 39.0479 0V8.95205C46.4745 9.42439 50.8502 11.7831 55.2438 15.4637L61.7956 9.14812Z" fill="#014073"/>
<path d="M66.0002 34.4268H74.9418C74.3418 25.5149 70.8557 18.1922 65.4432 12.1915L59.1172 18.4789C62.9285 22.8458 65.4358 28.4855 66.0002 34.4268Z" fill="#014073"/>
<path d="M66.042 38.8832C65.0958 53.7364 52.7899 65.5165 37.7584 65.5165C22.1105 65.5165 8.91195 52.8259 8.91195 37.1795C8.91195 22.2847 21.2238 10.0976 34.5917 8.95389V0.00183105C15.2825 1.1589 0 17.4054 0 37.2181C0 57.7795 16.9624 74.4285 37.5238 74.4285C57.4746 74.4285 74.0479 58.1924 75 38.8832H66.042Z" fill="#014073"/>
</svg>
